<svg xmlns="http://www.w3.org/2000/svg" viewBox="0 0 306 344.35"><path d="M302.107 258.262c2.401-4.159 3.893-8.845 3.893-13.053V99.14c0-4.208-1.49-8.893-3.892-13.052L153 172.175l149.107 86.087z" fill="#00599C"/><path d="m166.25 341.193 126.5-73.084c3.644-2.104 6.956-6.09 9.357-10.247L153 172.175 3.893 258.263c2.401 4.159 5.714 8.144 9.357 10.248l126.5 73.084c7.287 4.208 19.213 4.208 26.5-.402z" fill="#004482"/><path d="M302.108 86.087c-2.402-4.159-5.715-8.144-9.358-10.248L166.25 2.755c-7.287-4.208-19.213-4.208-26.5 0L13.25 75.84C5.962 80.047 0 90.932 0 99.14v145.67c0 4.208 1.49 8.894 3.893 13.053L153 172.175l149.108-86.088z" fill="#659AD2"/><path d="M153 172.175 3.893 86.087C1.49 90.247 0 94.932 0 99.14v145.67c0 8.209 6.064 19.093 13.25 23.301l126.5 73.084c3.644 2.104 8.317 3.156 13.25 3.156V172.175z" fill="#00599C"/><g fill="#fff"><path d="M230.7 172.175c0-42.943-34.812-77.755-77.755-77.755s-77.755 34.812-77.755 77.755 34.812 77.756 77.755 77.756c20.466 0 39.804-8.296 54.156-22.648l-26.5-15.296c-7.457 7.457-17.592 11.684-27.656 11.684-21.844 0-39.496-17.652-39.496-39.496s17.652-39.496 39.496-39.496c10.064 0 20.199 4.227 27.656 11.684l26.5-15.296a77.755 77.755 0 0 0-26.5-22.648"/><path d="M256.2 152.175h-10v-10h-10v10h-10v10h10v10h10v-10h10zM296.2 152.175h-10v-10h-10v10h-10v10h10v10h10v-10h10z"/></g></svg>