<svg xmlns="http://www.w3.org/2000/svg" viewBox="0 0 256 256"><rect width="256" height="256" rx="28" fill="#092E20"/><path d="M186.377 94.198V168.9c0 28.07-2.09 41.512-8.282 53.146-5.78 11.218-13.36 18.3-29.17 26.075l-28.16-13.36c15.812-7.274 23.39-13.86 28.358-24.178 5.282-10.518 7.074-22.74 7.074-53.954V94.198h30.18zm-30.18-32.776h30.18v24.292h-30.18V61.422zM69.648 152.81c0 17.79 7.674 26.875 24.192 26.875 5.57 0 10.74-.804 16.018-2.695v24.693c-6.474 2.49-13.556 3.798-21.534 3.798-13.256 0-23.376-4.192-30.248-12.468-6.876-8.28-10.078-20.147-10.078-36.274v-86.87l21.65-3.798v30.94h24.09v23.298h-24.09v32.5z" fill="#fff"/></svg>