<svg xmlns="http://www.w3.org/2000/svg" viewBox="0 0 256 185" preserveAspectRatio="xMidYMid">
  <path d="M250.716 70.497c-5.296-3.56-17.465-4.838-26.836-3.03-1.207-8.761-6.14-16.384-15.083-23.22l-5.133-3.43-3.43 5.144c-4.366 6.556-6.556 15.66-5.854 24.39.346 3.234 1.46 9.01 5.136 14.075-3.596 1.957-10.66 4.64-20.003 4.466H.005l-.342 1.924c-1.628 9.596-1.6 39.514 18.004 62.508C31.596 169.4 51.627 178 78.636 178c59.576 0 103.678-27.443 124.4-77.27 8.14.163 25.657.098 34.659-17.156.236-.395 3.197-6.536 4.106-8.49l-1.505-1.004-9.58-3.583zM141.996 0h-23.28v21.05h23.28V0zm0 25.497h-23.28v21.046h23.28V25.497zm-28.235 0H90.486v21.046h23.275V25.497zm-28.236 0H62.25v21.046h23.275V25.497zM57.29 50.992H34.013v21.048H57.29V50.992zm28.236 0H62.25v21.048h23.275V50.992zm28.236 0H90.486v21.048h23.275V50.992zm28.235 0h-23.28v21.048h23.28V50.992zm28.237 0h-23.28v21.048h23.28V50.992z" fill="#2496ED"/>
</svg>
