<svg xmlns="http://www.w3.org/2000/svg" viewBox="0 0 128 128">
  <path d="M126.67 98.44c-4.56 1.16-7.38.05-9.91-3.75-5.68-8.51-11.95-16.63-18-24.9-.78-1.07-1.59-2.12-2.6-3.45C89 76 81.85 85.2 75.14 94.77c-2.4 3.42-4.92 4.91-9.22 3.71l26.5-36.64-24.55-33.3c4.56-1 7.5.24 10.08 4 5.5 8.1 11.57 15.72 17.67 23.83L113.7 28.6c2.32-3.3 4.86-4.78 9-3.65L100.26 57.7l24.1 33.07c.73 1 1.43 2.05 2.31 3.67z" fill="#fff"/>
  <path d="M1.33 61.74c.72-3.61 1.2-7.29 2.2-10.83 6-21.43 30.6-30.34 47.5-17.06C60.93 41.64 63.39 52.6 62.54 65H7.72c-.42 22.22 14.2 35.56 33.89 30.5 8.13-2.09 13.22-7.62 16-15.38 1.55-4.32 3.78-4.86 7.83-3.39-1.85 7.95-5.54 14.74-12 19.63-13.46 10.2-33 8.5-43.9-3.76-6.06-6.82-8.55-15-9.18-23.86-.1-1.34-.15-2.68-.23-4 .1-1 .1-2 0-3z" fill="#fff"/>
  <path d="M7.72 60c.42-14.6 10.74-26.18 24.23-27.8 13.95-1.66 26.55 8.06 28.86 22.3.3 1.82.26 3.7.38 5.5H7.72z" fill="rgba(255,255,255,0.5)"/>
</svg>
