<svg xmlns="http://www.w3.org/2000/svg" viewBox="0 0 24 24" fill="currentColor"><path d="M24 18.588a1.529 1.529 0 0 1-1.895-.72l-3.45-4.771-.5-.667-4.003 5.444a1.466 1.466 0 0 1-1.802.708l5.158-6.92-4.798-6.251a1.595 1.595 0 0 1 1.9.666l3.576 4.83 3.596-4.81a1.435 1.435 0 0 1 1.788-.668L15.659 12l5.341 6.588zm-13.353-.1l4.774-6.49L10.6 5.407a1.595 1.595 0 0 0-1.9-.667l4.799 6.266-4.784 6.447a1.466 1.466 0 0 0 1.932.035zM2.66 6.26a1.595 1.595 0 0 0-1.9-.667l4.799 6.266L.784 18.303a1.466 1.466 0 0 0 1.802-.709l3.45-4.771.5-.667z"/></svg>