<svg xmlns="http://www.w3.org/2000/svg" viewBox="0 0 256 256"><rect width="256" height="256" rx="28" fill="#f0f0f0"/><path d="M73.3 147.7c-4.5 13.3-9 26.6-13.4 40h-.6c-4.7-13.3-9.1-26.7-13.5-40H28.6l22.4 60.4h16L89.7 147.7zm54.5 0h-38.5v60.4h17V188.3h20c14.4 0 26.2-7.7 26.2-20.3S142.2 147.7 127.8 147.7zm-.7 27.9h-20.8V160h20.8c6.6 0 10.7 4.4 10.7 7.8C137.8 172.8 132.8 175.6 127.1 175.6zM182.9 147.7h-17v60.4h17zm22.9 0c-2 6.3-4 12.6-5.9 19h11.8c-2-6.4-3.9-12.7-5.9-19z" fill="#333"/><path d="M128 48c-27.6 0-50 22.4-50 50s22.4 50 50 50 50-22.4 50-50-22.4-50-50-50zm0 80c-16.5 0-30-13.5-30-30s13.5-30 30-30 30 13.5 30 30-13.5 30-30 30z" fill="#009688"/><path d="M128 68c-16.5 0-30 13.5-30 30s13.5 30 30 30 30-13.5 30-30-13.5-30-30-30zm0 48c-9.9 0-18-8.1-18-18s8.1-18 18-18 18 8.1 18 18-8.1 18-18 18z" fill="#009688"/></svg>