<svg xmlns="http://www.w3.org/2000/svg" viewBox="0 0 128 128"><path d="M53.578 6.186c-1.418.126-2.238 1.64-2.238 1.64s-1.795 3.422-2.487 6.63c-.507 2.347-.578 4.293.15 5.916 1.09 2.44 3.97 5.474 3.97 5.474s-.79 4.66-1.196 9.686c-.296 3.67-.24 7.793.35 11.012.16.875.415 1.604.657 2.303-6.903 4.225-23.41 15.06-33.39 27.118C9.51 87.97 5.586 101.128 8.11 110.23c3.61 13.036 15.954 15.587 27.097 11.09 8.117-3.277 14.84-10.456 18.62-17.508a61.697 61.697 0 0 0 3.468-8.257c3.93.923 8.023 1.37 11.996 1.218a48.37 48.37 0 0 0 10.31-1.592 59.207 59.207 0 0 0 3.196 7.63c3.63 7.246 10.503 14.877 18.836 18.457 11.462 4.927 24.156 2.46 27.96-10.508 2.657-9.053-1.105-22.33-10.697-34.568-10.1-12.882-27.137-24.147-33.743-28.076.146-.528.296-1.068.38-1.69.55-3.213.576-7.335.24-11.006-.456-5.015-1.316-9.665-1.316-9.665s2.83-2.99 3.96-5.413c.754-1.618.854-3.565.383-5.92-.646-3.217-2.35-6.677-2.35-6.677s-.794-1.536-2.214-1.69c-1.42-.155-2.712 1.15-2.712 1.15s-2.657 2.69-4.793 5.485c-1.562 2.044-2.774 4.08-3.18 5.855-.608 2.652-.008 5.395.72 7.878.397 1.368 1.05 3.048 1.53 4.206-.83 3.33-1.84 8.413-2.346 13.26l-2.03-.694s-.085-.094-.236-.264c-1.002-1.08-4.668-4.794-10.42-6.037-3.003-.65-6.578-.53-9.72.978l-1.965-.667c-.472-4.87-1.426-9.985-2.22-13.33.504-1.148 1.184-2.81 1.6-4.17.762-2.473 1.39-5.213.81-7.87-.386-1.779-1.58-3.826-3.117-5.886-2.107-2.82-4.726-5.548-4.726-5.548s-1.266-1.33-2.684-1.204z" fill="#EEEEEE"/></svg>