<svg xmlns="http://www.w3.org/2000/svg" viewBox="0 0 128 128">
  <path d="M53.523 6.332c-1.37.118-2.16 1.582-2.16 1.582s-1.736 3.31-2.404 6.41c-.49 2.27-.56 4.15.144 5.72 1.054 2.36 3.838 5.293 3.838 5.293s-.764 4.504-1.156 9.364c-.287 3.548-.232 7.534.338 10.648.156.846.402 1.55.636 2.228-6.672 4.084-22.628 14.562-32.29 26.22C10.783 85.054 6.987 97.78 9.426 106.584c3.49 12.604 15.426 15.07 26.198 10.72 7.85-3.17 14.35-10.11 18.006-16.93a59.64 59.64 0 003.352-7.984c3.802.892 7.758 1.326 11.602 1.178a46.76 46.76 0 009.97-1.54 57.26 57.26 0 003.094 7.378c3.512 7.008 10.16 14.388 18.218 17.85 11.09 4.764 23.368 2.38 27.046-10.16 2.57-8.756-1.068-21.59-10.346-33.428-9.768-12.458-26.248-23.346-32.638-27.148.14-.51.286-1.032.368-1.634.532-3.108.558-7.094.232-10.642-.443-4.85-1.274-9.348-1.274-9.348s2.738-2.89 3.832-5.234c.73-1.566.826-3.448.37-5.726-.626-3.11-2.272-6.456-2.272-6.456s-.768-1.486-2.14-1.634c-1.372-.148-2.622 1.112-2.622 1.112s-2.57 2.602-4.636 5.306c-1.512 1.978-2.684 3.946-3.076 5.664-.588 2.564-.008 5.216.696 7.618.384 1.324 1.016 2.948 1.48 4.068-.804 3.222-1.78 8.134-2.27 12.82l-1.964-.672s-.082-.09-.228-.254c-.97-1.044-4.514-4.634-10.08-5.836-2.906-.628-6.362-.512-9.4.946l-1.9-.646c-.458-4.71-1.38-9.654-2.148-12.892.488-1.112 1.146-2.718 1.548-4.034.738-2.39 1.344-5.04.784-7.608-.374-1.72-1.528-3.7-3.016-5.694-2.038-2.726-4.57-5.364-4.57-5.364s-1.224-1.284-2.594-1.166z" fill="#fff"/>
</svg>
