<svg xmlns="http://www.w3.org/2000/svg" viewBox="0 0 306 344.35"><path d="M302.107 258.262c2.401-4.159 3.893-8.845 3.893-13.053V99.14c0-4.208-1.49-8.893-3.892-13.052L153 172.175l149.107 86.087z" fill="#9C033A"/><path d="m166.25 341.193 126.5-73.084c3.644-2.104 6.956-6.09 9.357-10.247L153 172.175 3.893 258.263c2.401 4.159 5.714 8.144 9.357 10.248l126.5 73.084c7.287 4.208 19.213 4.208 26.5-.402z" fill="#CF649A"/><path d="M302.108 86.087c-2.402-4.159-5.715-8.144-9.358-10.248L166.25 2.755c-7.287-4.208-19.213-4.208-26.5 0L13.25 75.84C5.962 80.047 0 90.932 0 99.14v145.67c0 4.208 1.49 8.894 3.893 13.053L153 172.175l149.108-86.088z" fill="#44A8B3"/><path d="m153 172.175-139.75 86.088c2.4 4.159 5.713 8.144 9.357 10.248l126.5 73.084c7.287 4.208 19.213 4.208 26.5-.402l126.5-73.084c3.644-2.104 6.956-6.09 9.357-10.248L153 172.175z" fill="#CF649A"/><path d="M153 172.175 3.893 86.087C1.49 90.247 0 94.932 0 99.14v145.67c0 8.209 6.064 19.093 13.25 23.301l126.5 73.084c3.644 2.104 8.317 3.156 13.25 3.156V172.175z" fill="#E1A7C1"/><path d="M166.25 2.755c-3.644-2.104-8.317-3.156-13.25-3.156v172.576l149.108-86.088c-2.402-4.159-5.715-8.144-9.358-10.248L166.25 2.755z" fill="#2B7B6F"/></svg>