<svg version="1.1" id="Layer_1" xmlns="http://www.w3.org/2000/svg" xmlns:xlink="http://www.w3.org/1999/xlink" x="0px" y="0px"
	 width="100%" viewBox="0 0 122 115" enable-background="new 0 0 122 115" xml:space="preserve">
<path fill="#FEFEFE" opacity="1.000000" stroke="none" 
	d="
M1.000000,111.000000 
	C1.000000,74.412910 1.000000,37.825825 1.000000,1.000000 
	C31.353811,1.000000 61.708248,1.000000 92.478867,1.350461 
	C91.260178,4.115961 86.183411,3.395532 86.941139,8.305485 
	C86.582283,8.739837 86.300102,8.873428 85.730576,8.652719 
	C81.765312,9.764391 77.597221,10.484311 74.423515,12.656850 
	C69.883560,15.764647 66.376389,20.376146 61.849735,23.509983 
	C58.285454,25.977558 55.440376,28.409958 54.497047,32.908436 
	C53.389481,34.290459 52.646049,35.613628 51.641384,37.145515 
	C50.925072,38.042641 50.533264,38.784451 50.004646,39.410793 
	C46.582863,43.465141 40.979122,46.369343 42.786560,53.239582 
	C42.830242,53.405624 40.332470,54.867626 39.521622,54.527939 
	C34.745438,52.527065 30.171684,50.047482 25.419130,47.983898 
	C22.865915,46.875267 19.305727,44.833675 17.592705,45.767639 
	C14.671766,47.360172 12.602670,50.640850 12.912247,54.881485 
	C13.184493,58.610733 11.682121,62.565044 12.386926,66.139267 
	C13.039272,69.447456 11.553336,73.977280 16.141027,76.219635 
	C16.275772,76.807137 16.309149,77.152298 16.240366,77.956375 
	C16.621958,81.128479 14.124480,85.000183 19.163486,86.120941 
	C19.250298,86.264969 19.243696,86.601234 19.166166,87.044662 
	C19.253374,89.244034 18.780128,91.503990 19.697565,92.665283 
	C22.989725,96.832512 26.752178,100.628204 30.030632,104.748535 
	C27.047260,105.931389 23.724392,106.246346 21.810848,108.053551 
	C15.398343,114.109734 8.290046,112.620026 1.000000,111.000000 
z"/>
<path fill="#FDFDFB" opacity="1.000000" stroke="none" 
	d="
M123.000000,75.000000 
	C123.000000,88.625023 123.000000,102.250038 123.000000,116.000000 
	C88.979202,116.000000 54.958256,116.000000 20.482222,115.635315 
	C21.532444,114.326469 23.024923,113.361061 24.545456,112.442070 
	C29.351841,109.537125 34.168728,106.649551 39.336960,103.751747 
	C46.458168,100.503578 53.223969,97.258934 59.986504,94.237450 
	C59.983231,94.460617 60.054672,94.901237 60.082684,95.263748 
	C61.777649,96.396629 63.444603,97.167000 65.334839,98.001328 
	C65.558128,98.065285 65.958916,98.300148 66.036362,98.607697 
	C67.745506,99.264191 69.377197,99.613136 71.340805,99.941879 
	C72.115082,99.945541 72.557434,99.969406 73.258194,100.279755 
	C77.360970,100.479195 82.307678,101.885132 84.837280,100.017403 
	C91.664337,94.976631 99.138359,90.185303 103.323746,82.048508 
	C107.119972,84.348366 109.851288,81.993782 112.667831,80.567291 
	C116.156815,78.800217 119.559837,76.863457 123.000000,75.000000 
z"/>
<path fill="#FDFDFD" opacity="1.000000" stroke="none" 
	d="
M123.000000,74.531342 
	C119.559837,76.863457 116.156815,78.800217 112.667831,80.567291 
	C109.851288,81.993782 107.119972,84.348366 103.322525,81.629517 
	C103.839531,78.427017 105.050751,75.743279 105.452377,72.943390 
	C106.209991,67.661751 106.501472,62.313244 106.973099,56.578831 
	C107.058578,54.792519 107.157677,53.419903 107.592728,51.941013 
	C107.691994,49.875305 107.455292,47.915874 107.165359,45.562691 
	C107.140862,44.111874 107.169594,43.054810 107.467506,41.827499 
	C107.563377,40.423462 107.390060,39.189671 107.147430,37.548714 
	C107.038490,35.765305 106.998856,34.389061 107.231155,32.802448 
	C107.063461,31.382414 106.623848,30.172749 106.119148,28.637701 
	C106.048058,27.870850 106.042053,27.429380 106.316452,26.725708 
	C107.201591,22.898615 107.382210,19.453764 103.679123,16.814899 
	C103.296959,15.723997 103.164604,14.855637 103.311996,13.718777 
	C104.394501,9.300184 105.197250,5.150092 106.000000,1.000000 
	C111.639282,1.000000 117.278572,1.000000 123.000000,1.000000 
	C123.000000,25.354172 123.000000,49.708427 123.000000,74.531342 
z"/>
<path fill="#C3E57D" opacity="1.000000" stroke="none" 
	d="
M106.959221,33.012817 
	C106.998856,34.389061 107.038490,35.765305 107.069405,37.949539 
	C107.106567,39.837601 107.152443,40.917675 107.198326,41.997746 
	C107.169594,43.054810 107.140862,44.111874 107.079315,45.992310 
	C107.116592,48.559547 107.186676,50.303421 107.256767,52.047291 
	C107.157677,53.419903 107.058578,54.792519 106.727692,56.586357 
	C106.495903,57.007580 106.004753,57.004829 105.704720,56.712639 
	C105.270439,55.276802 105.029846,54.134075 105.020035,52.989365 
	C104.972931,47.493183 105.491219,41.937805 104.858788,36.514217 
	C103.994835,29.105150 102.586906,21.715715 100.739601,14.489807 
	C100.125809,12.088902 97.790161,9.191040 95.585541,8.435808 
	C93.876968,7.850512 91.157715,10.269985 88.868828,11.312246 
	C84.821037,13.155440 80.758865,14.967041 76.811569,16.463432 
	C79.937584,13.726594 82.954735,11.318181 85.971878,8.909769 
	C86.300102,8.873428 86.582283,8.739837 87.279030,8.246900 
	C90.826431,5.656536 93.913216,3.328267 97.000000,0.999999 
	C97.444443,1.000000 97.888893,1.000000 98.662567,1.392652 
	C100.338608,5.852628 101.685425,9.919951 103.032242,13.987275 
	C103.164604,14.855637 103.296959,15.723997 103.676651,17.229404 
	C104.628006,20.906939 105.332024,23.947426 106.036041,26.987911 
	C106.042053,27.429380 106.048058,27.870850 106.041153,29.000866 
	C106.338570,30.797213 106.648895,31.905016 106.959221,33.012817 
z"/>
<path fill="#4A494A" opacity="1.000000" stroke="none" 
	d="
M38.981552,103.755264 
	C34.168728,106.649551 29.351841,109.537125 24.545456,112.442070 
	C23.024923,113.361061 21.532444,114.326469 20.013565,115.635315 
	C16.969406,116.000000 13.938813,116.000000 10.244982,115.679382 
	C6.721162,114.905846 3.860581,114.452927 1.000000,114.000000 
	C1.000000,113.250000 1.000000,112.500000 1.000000,111.375000 
	C8.290046,112.620026 15.398343,114.109734 21.810848,108.053551 
	C23.724392,106.246346 27.047260,105.931389 30.414110,104.789749 
	C32.636810,103.458916 34.169819,102.271042 35.965157,101.201874 
	C36.827702,101.339554 37.427914,101.358528 38.046974,101.637833 
	C38.371067,102.517204 38.676308,103.136230 38.981552,103.755264 
z"/>
<path fill="#F4FCE2" opacity="1.000000" stroke="none" 
	d="
M103.311996,13.718777 
	C101.685425,9.919951 100.338608,5.852628 98.995895,1.392652 
	C101.041664,1.000000 103.083336,1.000000 105.562500,1.000000 
	C105.197250,5.150092 104.394501,9.300184 103.311996,13.718777 
z"/>
<path fill="#F2FADB" opacity="1.000000" stroke="none" 
	d="
M96.600006,0.999999 
	C93.913216,3.328267 90.826431,5.656536 87.401764,8.043389 
	C86.183411,3.395532 91.260178,4.115961 92.947525,1.350461 
	C94.066673,1.000000 95.133339,1.000000 96.600006,0.999999 
z"/>
<path fill="#E3E3E3" opacity="1.000000" stroke="none" 
	d="
M1.000000,114.500000 
	C3.860581,114.452927 6.721162,114.905846 9.790872,115.679382 
	C7.000000,115.666664 4.000000,115.333328 1.000000,114.500000 
z"/>
<path fill="#8CBF51" opacity="1.000000" stroke="none" 
	d="
M16.342525,77.497452 
	C16.309149,77.152298 16.275772,76.807137 16.199123,75.755615 
	C16.155851,66.166321 16.155851,57.283409 16.155851,48.400494 
	C16.858343,47.984383 17.560835,47.568275 18.263329,47.152164 
	C26.188770,51.411327 34.114212,55.670490 42.010101,60.195366 
	C41.991543,60.638645 42.002537,60.816212 41.706474,61.120148 
	C34.233017,60.960968 29.291910,56.153393 23.322065,52.536308 
	C22.595264,55.096706 21.452938,57.720749 21.246891,60.416359 
	C21.138023,61.840622 22.278767,64.006462 23.514797,64.770142 
	C27.757496,67.391479 28.210770,70.376358 23.824623,72.940918 
	C19.785305,75.302696 20.826500,78.097275 21.819216,81.523239 
	C22.662355,80.848534 23.225527,80.397865 24.243532,79.583237 
	C24.858715,85.332817 25.429308,90.665642 25.701534,95.843681 
	C23.350012,92.659676 21.296856,89.630455 19.243698,86.601234 
	C19.243696,86.601234 19.250298,86.264969 19.168085,85.742424 
	C18.171423,82.645737 17.256975,80.071594 16.342525,77.497452 
z"/>
<path fill="#EBF8D9" opacity="1.000000" stroke="none" 
	d="
M42.039654,59.929657 
	C34.114212,55.670490 26.188770,51.411327 18.263329,47.152164 
	C17.560835,47.568275 16.858343,47.984383 16.155851,48.400494 
	C16.155851,57.283409 16.155851,66.166321 16.097755,75.513268 
	C11.553336,73.977280 13.039272,69.447456 12.386926,66.139267 
	C11.682121,62.565044 13.184493,58.610733 12.912247,54.881485 
	C12.602670,50.640850 14.671766,47.360172 17.592705,45.767639 
	C19.305727,44.833675 22.865915,46.875267 25.419130,47.983898 
	C30.171684,50.047482 34.745438,52.527065 39.521622,54.527939 
	C40.332470,54.867626 42.830242,53.405624 42.786560,53.239582 
	C40.979122,46.369343 46.582863,43.465141 50.004646,39.410793 
	C50.533264,38.784451 50.925072,38.042641 51.896915,37.166630 
	C52.583801,36.984585 52.753922,36.990139 52.901085,37.345421 
	C51.903275,39.790123 50.928429,41.885098 49.706627,44.175003 
	C49.241966,45.165634 49.024258,45.961338 48.551674,46.999062 
	C46.211086,51.470600 44.125370,55.700127 42.039654,59.929657 
z"/>
<path fill="#F2FADB" opacity="1.000000" stroke="none" 
	d="
M85.730576,8.652719 
	C82.954735,11.318181 79.937584,13.726594 76.494141,16.488781 
	C75.022736,17.518429 73.977631,18.194302 72.593201,18.926369 
	C70.177307,20.662319 68.100731,22.342075 65.801315,24.121147 
	C65.317429,24.429445 65.128479,24.690596 64.674362,25.045856 
	C61.864464,27.689531 59.391804,30.291264 56.619835,32.936211 
	C55.920544,33.027210 55.520561,33.074989 55.055176,33.054993 
	C54.989773,32.987221 54.861179,32.849583 54.861179,32.849583 
	C55.440376,28.409958 58.285454,25.977558 61.849735,23.509983 
	C66.376389,20.376146 69.883560,15.764647 74.423515,12.656850 
	C77.597221,10.484311 81.765312,9.764391 85.730576,8.652719 
z"/>
<path fill="#EBF8D9" opacity="1.000000" stroke="none" 
	d="
M19.166168,87.044662 
	C21.296856,89.630455 23.350012,92.659676 25.876740,96.138077 
	C29.467815,98.085892 32.585323,99.584526 35.702827,101.083160 
	C34.169819,102.271042 32.636810,103.458916 30.720322,104.605560 
	C26.752178,100.628204 22.989725,96.832512 19.697565,92.665283 
	C18.780128,91.503990 19.253374,89.244034 19.166168,87.044662 
z"/>
<path fill="#EBF8D9" opacity="1.000000" stroke="none" 
	d="
M16.240366,77.956375 
	C17.256975,80.071594 18.171423,82.645737 19.081276,85.598404 
	C14.124480,85.000183 16.621958,81.128479 16.240366,77.956375 
z"/>
<path fill="#F2FADB" opacity="1.000000" stroke="none" 
	d="
M52.924042,36.995689 
	C52.753922,36.990139 52.583801,36.984585 52.158150,36.957916 
	C52.646049,35.613628 53.389481,34.290459 54.497047,32.908436 
	C54.861179,32.849583 54.989773,32.987221 55.009377,33.358192 
	C54.986530,34.137066 54.944084,34.544971 54.643211,35.082794 
	C53.897869,35.807041 53.410954,36.401363 52.924042,36.995689 
z"/>
<path fill="#B3DF63" opacity="1.000000" stroke="none" 
	d="
M65.958916,98.300148 
	C65.958916,98.300148 65.558128,98.065285 65.177200,97.703819 
	C63.215733,96.528648 61.635204,95.714943 60.054672,94.901237 
	C60.054672,94.901237 59.983231,94.460617 59.972160,93.993843 
	C59.961090,93.527069 59.892052,93.043999 60.056557,92.719635 
	C61.317612,90.212540 62.600559,88.101608 63.474438,85.833092 
	C65.750099,79.925667 67.846336,73.949112 70.313690,67.843964 
	C72.073914,65.791641 73.534584,63.895500 75.329185,61.999458 
	C76.108337,61.999706 76.553558,61.999855 77.374428,62.000099 
	C78.501373,62.000053 79.252670,61.999905 79.994476,62.375053 
	C77.308968,67.057213 75.780090,71.250038 80.461746,75.375900 
	C81.110992,75.948067 81.012749,77.567177 80.968468,78.690094 
	C80.837730,82.005600 81.540146,84.362152 85.427010,85.162605 
	C88.448387,85.784828 88.711929,87.685608 86.685501,90.232010 
	C85.130547,92.185974 84.200859,94.637535 82.630844,96.988335 
	C79.179001,98.070335 76.089401,99.031807 72.999794,99.993271 
	C72.557434,99.969406 72.115082,99.945541 71.113998,99.691383 
	C69.023155,99.074112 67.491035,98.687126 65.958916,98.300148 
z"/>
<path fill="#F4FCE2" opacity="1.000000" stroke="none" 
	d="
M73.258194,100.279755 
	C76.089401,99.031807 79.179001,98.070335 82.980621,96.995483 
	C88.496414,92.609619 93.300179,88.337151 98.416428,84.003006 
	C98.894035,82.640152 99.059174,81.338974 99.311707,79.840958 
	C99.399109,79.644119 99.451736,79.216606 99.752304,79.079567 
	C101.996605,72.291000 103.940323,65.639481 105.936630,58.659981 
	C105.994400,57.889618 105.999580,57.447224 106.004753,57.004829 
	C106.004753,57.004829 106.495903,57.007580 106.741302,57.000053 
	C106.501472,62.313244 106.209991,67.661751 105.452377,72.943390 
	C105.050751,75.743279 103.839531,78.427017 102.995010,81.582184 
	C99.138359,90.185303 91.664337,94.976631 84.837280,100.017403 
	C82.307678,101.885132 77.360970,100.479195 73.258194,100.279755 
z"/>
<path fill="#425430" opacity="1.000000" stroke="none" 
	d="
M59.892052,93.043999 
	C59.892052,93.043999 59.961090,93.527069 59.975433,93.770676 
	C53.223969,97.258934 46.458168,100.503578 39.336960,103.751747 
	C38.676308,103.136230 38.371067,102.517204 38.322121,101.407181 
	C41.031506,99.559502 43.484592,98.202805 46.227417,96.766708 
	C47.027836,95.899361 47.538525,95.111412 48.382019,94.199272 
	C50.508263,92.960411 52.301701,91.845741 54.480759,90.791054 
	C55.898800,90.960106 56.931210,91.069183 58.071747,91.433769 
	C58.750599,92.140854 59.321323,92.592422 59.892052,93.043999 
z"/>
<path fill="#F4FCE2" opacity="1.000000" stroke="none" 
	d="
M60.082684,95.263748 
	C61.635204,95.714943 63.215733,96.528648 64.953911,97.639862 
	C63.444603,97.167000 61.777649,96.396629 60.082684,95.263748 
z"/>
<path fill="#F4FCE2" opacity="1.000000" stroke="none" 
	d="
M66.036362,98.607697 
	C67.491035,98.687126 69.023155,99.074112 70.782082,99.711578 
	C69.377197,99.613136 67.745506,99.264191 66.036362,98.607697 
z"/>
<path fill="#F4FCE2" opacity="1.000000" stroke="none" 
	d="
M106.316452,26.725710 
	C105.332024,23.947426 104.628006,20.906939 103.926460,17.451946 
	C107.382210,19.453764 107.201591,22.898615 106.316452,26.725710 
z"/>
<path fill="#F4FCE2" opacity="1.000000" stroke="none" 
	d="
M107.592728,51.941013 
	C107.186676,50.303421 107.116592,48.559547 107.132545,46.386063 
	C107.455292,47.915874 107.691994,49.875305 107.592728,51.941013 
z"/>
<path fill="#F4FCE2" opacity="1.000000" stroke="none" 
	d="
M107.231155,32.802448 
	C106.648895,31.905016 106.338570,30.797213 106.106232,29.326248 
	C106.623848,30.172749 107.063461,31.382414 107.231155,32.802448 
z"/>
<path fill="#F4FCE2" opacity="1.000000" stroke="none" 
	d="
M107.467506,41.827499 
	C107.152443,40.917675 107.106567,39.837601 107.138718,38.356705 
	C107.390060,39.189671 107.563377,40.423462 107.467506,41.827499 
z"/>
<path fill="#BDE46E" opacity="1.000000" stroke="none" 
	d="
M105.704720,56.712639 
	C105.999580,57.447224 105.994400,57.889618 105.577164,58.746384 
	C104.774628,60.166142 104.453827,61.205730 103.980278,62.170326 
	C102.689705,64.799187 101.334602,67.396370 100.003448,69.543922 
	C100.004044,57.132133 98.979324,45.557503 88.480194,37.472191 
	C86.973083,37.985531 85.484924,38.492413 84.039490,38.626205 
	C85.058182,35.834694 86.034157,33.416275 87.326416,30.827335 
	C88.159058,29.042599 88.675400,27.428381 89.191750,25.814163 
	C88.673714,25.584860 88.155685,25.355555 87.637657,25.126249 
	C86.427681,27.087402 85.217712,29.048555 83.970840,31.366604 
	C82.959534,33.817722 81.985138,35.911945 80.651978,37.965698 
	C75.645935,34.652004 75.221649,32.190132 78.360268,28.055647 
	C79.056145,27.138977 79.829132,25.121296 79.469910,24.786186 
	C78.492126,23.874043 76.874641,23.053280 75.606651,23.177336 
	C73.360138,23.397125 71.184624,24.342512 69.034836,24.649467 
	C70.371010,22.499832 71.651764,20.685003 72.932518,18.870174 
	C73.977631,18.194302 75.022736,17.518429 76.385277,16.817207 
	C80.758865,14.967041 84.821037,13.155440 88.868828,11.312246 
	C91.157715,10.269985 93.876968,7.850512 95.585541,8.435808 
	C97.790161,9.191040 100.125809,12.088902 100.739601,14.489807 
	C102.586906,21.715715 103.994835,29.105150 104.858788,36.514217 
	C105.491219,41.937805 104.972931,47.493183 105.020035,52.989365 
	C105.029846,54.134075 105.270439,55.276802 105.704720,56.712639 
M96.222092,16.636171 
	C96.406830,15.622009 96.591568,14.607847 96.776306,13.593685 
	C96.078094,13.619331 95.379890,13.644978 94.681686,13.670625 
	C94.967636,14.721397 95.253586,15.772171 96.222092,16.636171 
z"/>
<path fill="#7FBC46" opacity="1.000000" stroke="none" 
	d="
M45.937675,96.846100 
	C43.484592,98.202805 41.031506,99.559502 38.303272,101.146851 
	C37.427914,101.358528 36.827702,101.339554 35.965160,101.201866 
	C32.585323,99.584526 29.467815,98.085892 26.175104,96.292862 
	C25.429308,90.665642 24.858715,85.332817 24.243532,79.583237 
	C23.225527,80.397865 22.662355,80.848534 21.819216,81.523239 
	C20.826500,78.097275 19.785305,75.302696 23.824623,72.940918 
	C28.210770,70.376358 27.757496,67.391479 23.514797,64.770142 
	C22.278767,64.006462 21.138023,61.840622 21.246891,60.416359 
	C21.452938,57.720749 22.595264,55.096706 23.322065,52.536308 
	C29.291910,56.153393 34.233017,60.960968 41.937050,61.153694 
	C42.474682,61.060867 42.940414,61.081177 42.965496,61.533852 
	C43.046272,72.976494 43.035999,83.991943 54.095135,90.731071 
	C52.301701,91.845741 50.508263,92.960411 48.340542,93.813614 
	C46.767128,91.698433 45.568001,89.844719 44.368874,87.991013 
	C44.015060,88.213531 43.661247,88.436050 43.307434,88.658569 
	C44.184181,91.387749 45.060928,94.116928 45.937675,96.846100 
M40.933994,82.300743 
	C39.100018,79.846077 37.266037,77.391411 35.432056,74.936752 
	C34.955200,75.297760 34.478344,75.658768 34.001492,76.019775 
	C35.671482,78.346817 37.341473,80.673866 39.082245,83.674698 
	C40.053417,84.758942 41.024586,85.843185 41.995758,86.927429 
	C42.281334,86.663391 42.566906,86.399353 42.852482,86.135315 
	C42.235416,85.090042 41.618355,84.044762 40.933994,82.300743 
M33.397392,73.483376 
	C33.397392,73.483376 33.526230,73.401459 33.397392,73.483376 
z"/>
<path fill="#BBDB85" opacity="1.000000" stroke="none" 
	d="
M42.940414,61.081177 
	C42.940414,61.081177 42.474682,61.060867 42.244106,61.027325 
	C42.002537,60.816212 41.991543,60.638645 42.010101,60.195366 
	C44.125370,55.700127 46.211086,51.470600 48.619949,47.398872 
	C48.293133,49.702793 47.643162,51.848915 46.841888,54.332813 
	C46.526814,56.629757 46.363045,58.588928 46.181538,60.760353 
	C45.126083,60.864826 44.033249,60.973003 42.940414,61.081177 
z"/>
<path fill="#B2DF5F" opacity="1.000000" stroke="none" 
	d="
M46.993191,53.995037 
	C47.643162,51.848915 48.293133,49.702793 48.874825,47.156860 
	C49.024258,45.961338 49.241966,45.165634 50.038746,44.165306 
	C51.743198,43.302467 52.868576,42.644257 54.006531,42.368526 
	C54.512463,46.097809 56.793926,45.281601 58.338055,44.145329 
	C59.437370,43.336388 60.178780,41.506367 60.302876,40.065125 
	C60.415207,38.760529 59.475025,37.365307 58.999298,36.005882 
	C58.999668,36.001717 58.998474,35.996689 59.397247,35.999443 
	C65.311943,37.316788 65.350914,43.145325 65.243637,46.124332 
	C65.020470,52.321880 68.993301,55.143948 71.844337,59.314560 
	C70.468468,62.420826 69.228569,65.204361 67.730499,68.202309 
	C66.642891,70.276314 65.813454,72.135918 64.613861,74.038628 
	C59.198463,75.364510 58.326900,74.719582 58.488850,69.943054 
	C58.514496,69.186760 58.438091,68.287117 58.052719,67.679703 
	C55.714874,63.994820 53.389767,60.289944 50.803406,56.781181 
	C49.912712,55.572823 48.284496,54.908104 46.993191,53.995037 
z"/>
<path fill="#BBDB85" opacity="1.000000" stroke="none" 
	d="
M53.993958,41.986046 
	C52.868576,42.644257 51.743198,43.302467 50.285698,43.970375 
	C50.928429,41.885098 51.903275,39.790123 52.901081,37.345417 
	C53.410954,36.401363 53.897869,35.807041 54.888317,35.197384 
	C55.607224,35.463161 55.822598,35.744274 55.988991,36.375160 
	C55.291325,38.478638 54.642639,40.232342 53.993958,41.986046 
z"/>
<path fill="#B8E264" opacity="1.000000" stroke="none" 
	d="
M71.980309,58.991837 
	C68.993301,55.143948 65.020470,52.321880 65.243637,46.124332 
	C65.350914,43.145325 65.311943,37.316788 59.397144,35.666389 
	C58.996273,34.886398 58.994270,34.442211 59.186188,33.722054 
	C61.257275,30.632025 63.134445,27.817970 65.011612,25.003914 
	C65.128479,24.690596 65.317429,24.429445 66.088379,24.250015 
	C67.391991,24.514469 68.185692,24.749371 68.979401,24.984272 
	C71.184624,24.342512 73.360138,23.397125 75.606651,23.177336 
	C76.874641,23.053280 78.492126,23.874043 79.469910,24.786186 
	C79.829132,25.121296 79.056145,27.138977 78.360268,28.055647 
	C75.221649,32.190132 75.645935,34.652004 80.644218,38.340469 
	C78.997803,42.837963 77.000389,46.920216 74.783875,51.299980 
	C73.703293,54.062275 72.841805,56.527054 71.980309,58.991837 
z"/>
<path fill="#BBDB85" opacity="1.000000" stroke="none" 
	d="
M64.674362,25.045856 
	C63.134445,27.817970 61.257275,30.632025 58.874405,33.696381 
	C57.885521,33.595455 57.402332,33.244225 56.919144,32.892994 
	C59.391804,30.291264 61.864464,27.689531 64.674362,25.045856 
z"/>
<path fill="#BBDB85" opacity="1.000000" stroke="none" 
	d="
M69.034836,24.649467 
	C68.185692,24.749371 67.391991,24.514469 66.311218,24.150700 
	C68.100731,22.342075 70.177307,20.662319 72.593201,18.926369 
	C71.651764,20.685003 70.371010,22.499832 69.034836,24.649467 
z"/>
<path fill="#BDE46E" opacity="1.000000" stroke="none" 
	d="
M56.619835,32.936211 
	C57.402332,33.244225 57.885521,33.595455 58.680489,33.972359 
	C58.994270,34.442211 58.996273,34.886398 58.998375,35.663635 
	C58.998474,35.996689 58.999668,36.001717 58.628735,36.005127 
	C57.517857,36.014156 56.777912,36.019772 56.037968,36.025391 
	C55.822598,35.744274 55.607224,35.463161 55.146744,35.067459 
	C54.944084,34.544971 54.986530,34.137066 55.074776,33.425964 
	C55.520561,33.074989 55.920544,33.027210 56.619835,32.936211 
z"/>
<path fill="#BAE467" opacity="1.000000" stroke="none" 
	d="
M83.996765,38.999294 
	C85.484924,38.492413 86.973083,37.985531 88.480194,37.472191 
	C98.979324,45.557503 100.004044,57.132133 99.995285,69.929291 
	C100.039528,73.604713 95.588890,76.146179 99.451736,79.216606 
	C99.451736,79.216606 99.399109,79.644119 99.013031,79.916016 
	C98.085121,80.459274 97.543297,80.730644 96.623932,80.993477 
	C95.443024,80.510384 94.211494,80.223969 93.906677,79.530334 
	C92.102821,75.425400 90.584473,71.195534 88.806435,67.078369 
	C88.324883,65.963303 87.471222,64.695312 86.447411,64.194473 
	C84.425560,63.205402 82.165520,62.703251 80.003967,61.999752 
	C79.252670,61.999905 78.501373,62.000053 77.379242,61.640072 
	C77.838501,60.385235 79.077156,58.573578 79.437103,58.733963 
	C84.481049,60.981453 84.410896,56.409081 84.759399,54.189186 
	C85.198631,51.391426 86.688957,46.991806 80.993729,46.611099 
	C82.003159,43.817322 82.999962,41.408310 83.996765,38.999294 
M94.963173,49.903496 
	C94.202980,49.611427 92.921570,48.896259 92.762527,49.092182 
	C91.006409,51.255539 90.156601,53.507679 93.538017,55.968864 
	C94.083885,53.956196 94.533195,52.299519 94.963173,49.903496 
z"/>
<path fill="#B9E269" opacity="1.000000" stroke="none" 
	d="
M79.994476,62.375053 
	C82.165520,62.703251 84.425560,63.205402 86.447411,64.194473 
	C87.471222,64.695312 88.324883,65.963303 88.806435,67.078369 
	C90.584473,71.195534 92.102821,75.425400 93.906677,79.530334 
	C94.211494,80.223969 95.443024,80.510384 96.623390,81.342499 
	C97.368240,82.488266 97.736099,83.276474 98.103958,84.064682 
	C93.300179,88.337151 88.496414,92.609619 83.342865,96.874939 
	C84.200859,94.637535 85.130547,92.185974 86.685501,90.232010 
	C88.711929,87.685608 88.448387,85.784828 85.427010,85.162605 
	C81.540146,84.362152 80.837730,82.005600 80.968468,78.690094 
	C81.012749,77.567177 81.110992,75.948067 80.461746,75.375900 
	C75.780090,71.250038 77.308968,67.057213 79.994476,62.375053 
z"/>
<path fill="#B9E269" opacity="1.000000" stroke="none" 
	d="
M80.981102,46.995865 
	C86.688957,46.991806 85.198631,51.391426 84.759399,54.189186 
	C84.410896,56.409081 84.481049,60.981453 79.437103,58.733963 
	C79.077156,58.573578 77.838501,60.385235 77.003601,61.639969 
	C76.553558,61.999855 76.108337,61.999706 75.201439,61.687057 
	C75.834679,57.915874 76.929588,54.457184 78.283691,50.817390 
	C79.355621,49.422806 80.168365,48.209335 80.981102,46.995865 
z"/>
<path fill="#98C649" opacity="1.000000" stroke="none" 
	d="
M64.984016,73.995514 
	C65.813454,72.135918 66.642891,70.276314 68.068115,68.206192 
	C69.113976,67.997154 69.564064,67.998650 70.014145,68.000137 
	C67.846336,73.949112 65.750099,79.925667 63.474438,85.833092 
	C62.600559,88.101608 61.317612,90.212540 60.056557,92.719635 
	C59.321323,92.592422 58.750599,92.140854 58.080658,91.022720 
	C58.454250,88.644241 58.715477,86.836029 59.442116,85.239655 
	C61.172398,81.438339 63.122631,77.737152 64.984016,73.995514 
z"/>
<path fill="#A2D050" opacity="1.000000" stroke="none" 
	d="
M70.313690,67.843964 
	C69.564064,67.998650 69.113976,67.997154 68.326279,67.991776 
	C69.228569,65.204361 70.468468,62.420826 71.844337,59.314560 
	C72.841805,56.527054 73.703293,54.062275 75.161232,51.298553 
	C76.513283,50.999241 77.268898,50.998867 78.024506,50.998497 
	C76.929588,54.457184 75.834679,57.915874 74.867508,61.686958 
	C73.534584,63.895500 72.073914,65.791641 70.313690,67.843964 
z"/>
<path fill="#C3E57D" opacity="1.000000" stroke="none" 
	d="
M99.752304,79.079567 
	C95.588890,76.146179 100.039528,73.604713 99.996902,70.391472 
	C101.334602,67.396370 102.689705,64.799187 103.980278,62.170326 
	C104.453827,61.205730 104.774628,60.166142 105.524567,59.074356 
	C103.940323,65.639481 101.996605,72.291000 99.752304,79.079567 
z"/>
<path fill="#C3E57D" opacity="1.000000" stroke="none" 
	d="
M98.416428,84.003006 
	C97.736099,83.276474 97.368240,82.488266 97.000931,81.351028 
	C97.543297,80.730644 98.085121,80.459274 98.925629,80.112854 
	C99.059174,81.338974 98.894035,82.640152 98.416428,84.003006 
z"/>
<path fill="#ADDB5A" opacity="1.000000" stroke="none" 
	d="
M64.613861,74.038628 
	C63.122631,77.737152 61.172398,81.438339 59.442116,85.239655 
	C58.715477,86.836029 58.454250,88.644241 57.972534,90.767212 
	C56.931210,91.069183 55.898800,90.960106 54.480759,90.791054 
	C43.035999,83.991943 43.046272,72.976494 42.965496,61.533852 
	C44.033249,60.973003 45.126083,60.864826 46.181538,60.760353 
	C46.363045,58.588928 46.526814,56.629757 46.841888,54.332813 
	C48.284496,54.908104 49.912712,55.572823 50.803406,56.781181 
	C53.389767,60.289944 55.714874,63.994820 58.052719,67.679703 
	C58.438091,68.287117 58.514496,69.186760 58.488850,69.943054 
	C58.326900,74.719582 59.198463,75.364510 64.613861,74.038628 
z"/>
<path fill="#5E9D33" opacity="1.000000" stroke="none" 
	d="
M46.227413,96.766708 
	C45.060928,94.116928 44.184181,91.387749 43.307434,88.658569 
	C43.661247,88.436050 44.015060,88.213531 44.368874,87.991013 
	C45.568001,89.844719 46.767128,91.698433 48.007732,93.937805 
	C47.538525,95.111412 47.027836,95.899361 46.227413,96.766708 
z"/>
<path fill="#ACD659" opacity="1.000000" stroke="none" 
	d="
M78.283691,50.817390 
	C77.268898,50.998867 76.513283,50.999241 75.380325,51.001038 
	C77.000389,46.920216 78.997803,42.837963 81.002975,38.380939 
	C81.985138,35.911945 82.959534,33.817722 84.345856,31.364143 
	C85.508568,31.002476 86.259346,31.000166 87.010132,30.997852 
	C86.034157,33.416275 85.058182,35.834694 84.039490,38.626205 
	C82.999962,41.408310 82.003159,43.817322 80.993729,46.611099 
	C80.168365,48.209335 79.355621,49.422806 78.283691,50.817390 
z"/>
<path fill="#B6E064" opacity="1.000000" stroke="none" 
	d="
M87.326416,30.827335 
	C86.259346,31.000166 85.508568,31.002476 84.382767,31.007248 
	C85.217712,29.048555 86.427681,27.087402 87.637657,25.126249 
	C88.155685,25.355555 88.673714,25.584860 89.191750,25.814163 
	C88.675400,27.428381 88.159058,29.042599 87.326416,30.827335 
z"/>
<path fill="#C3E57D" opacity="1.000000" stroke="none" 
	d="
M95.880814,16.729557 
	C95.253586,15.772171 94.967636,14.721397 94.681686,13.670625 
	C95.379890,13.644978 96.078094,13.619331 96.776306,13.593685 
	C96.591568,14.607847 96.406830,15.622009 95.880814,16.729557 
z"/>
<path fill="#6CAE39" opacity="1.000000" stroke="none" 
	d="
M39.011467,83.000916 
	C37.341473,80.673866 35.671482,78.346817 34.001492,76.019775 
	C34.478344,75.658768 34.955200,75.297760 35.432056,74.936752 
	C37.266037,77.391411 39.100018,79.846077 40.635910,82.650543 
	C39.895706,83.000534 39.453587,83.000725 39.011467,83.000916 
z"/>
<path fill="#5E9D33" opacity="1.000000" stroke="none" 
	d="
M39.046856,83.337807 
	C39.453587,83.000725 39.895706,83.000534 40.669559,82.999908 
	C41.618355,84.044762 42.235416,85.090042 42.852482,86.135315 
	C42.566906,86.399353 42.281334,86.663391 41.995758,86.927429 
	C41.024586,85.843185 40.053417,84.758942 39.046856,83.337807 
z"/>
<path fill="#6CAE39" opacity="1.000000" stroke="none" 
	d="
M33.461811,73.442413 
	C33.526230,73.401459 33.397392,73.483376 33.461811,73.442413 
z"/>
<path fill="#B2E157" opacity="1.000000" stroke="none" 
	d="
M55.988991,36.375160 
	C56.777912,36.019772 57.517857,36.014156 58.628365,36.009293 
	C59.475025,37.365307 60.415207,38.760529 60.302876,40.065125 
	C60.178780,41.506367 59.437370,43.336388 58.338055,44.145329 
	C56.793926,45.281601 54.512463,46.097809 54.006531,42.368526 
	C54.642639,40.232342 55.291325,38.478638 55.988991,36.375160 
z"/>
<path fill="#BDE46E" opacity="1.000000" stroke="none" 
	d="
M94.972839,50.273170 
	C94.533195,52.299519 94.083885,53.956196 93.538017,55.968864 
	C90.156601,53.507679 91.006409,51.255539 92.762527,49.092182 
	C92.921570,48.896259 94.202980,49.611427 94.972839,50.273170 
z"/>
</svg>