<svg xmlns="http://www.w3.org/2000/svg" viewBox="0 0 24 24" fill="currentColor"><path d="M17.128 0a10.134 10.134 0 0 0-2.755.403l-.063.02A10.922 10.922 0 0 0 12.6.258C11.422.238 10.253.617 9.293 1.33a7.732 7.732 0 0 0-2.698 3.47c-.617-.06-1.235.003-1.82.178a5.61 5.61 0 0 0-3.296 2.727A5.79 5.79 0 0 0 1.2 12.28a6.142 6.142 0 0 0-1.17 3.075A6.345 6.345 0 0 0 .84 18.84 6.132 6.132 0 0 0 3.473 21.6a5.37 5.37 0 0 0 1.357.53c.48.13.98.196 1.482.193a6.1 6.1 0 0 0 2.837-.7 7.73 7.73 0 0 0 2.7 3.468 6.793 6.793 0 0 0 3.994 1.29h.21a6.856 6.856 0 0 0 3.936-1.497 7.066 7.066 0 0 0 2.174-3.179 5.614 5.614 0 0 0 3.22-2.64 5.79 5.79 0 0 0 .278-4.573 6.336 6.336 0 0 0 1.31-6.49A6.132 6.132 0 0 0 23.527 5.4a5.555 5.555 0 0 0-3.59-1.917A7.068 7.068 0 0 0 17.74.281 6.846 6.846 0 0 0 17.128 0z"/></svg>