<svg xmlns="http://www.w3.org/2000/svg" viewBox="0 0 24 24" fill="currentColor"><path d="M17.193 9.555c-1.264-5.58-4.252-7.414-4.573-8.115-.28-.394-.53-.954-.735-1.44-.036.495-.055.685-.523 1.184-.723.566-4.438 3.682-4.74 10.02-.282 5.912 4.27 9.435 4.888 9.884l.07.05A6.004 6.004 0 0 1 7.97 18.21c2.137 2.635 6.928 2.113 8.259-1.376.548-1.322.683-2.665.694-3.98a7.225 7.225 0 0 0-.73-3.3zM10.233 14.44a2.978 2.978 0 0 0-.385 1.485c0 1.71 1.381 3.094 3.084 3.094a3.063 3.063 0 0 0 2.108-.839c-2.26-.315-3.508-1.478-4.098-2.423a3.128 3.128 0 0 0-.71-1.317z"/></svg>