<svg xmlns="http://www.w3.org/2000/svg" viewBox="0 0 128 128"><path fill="#439934" d="M90.491 57.282c-.37-4.79-1.896-9.116-4.135-13.136-2.22-3.98-5.017-7.372-8.142-10.576-6.263-6.418-13.27-11.963-20.038-17.793-1.702-1.467-3.28-3.078-4.797-4.744a29.42 29.42 0 0 1-2.871-3.835c-.584-.954-.893-1.908-1.186-2.964L46.22 0l-2.59 4.759c-.313.588-.537.947-.833 1.527-2.398 4.723-5.593 8.862-9.178 12.766-7.263 7.916-14.85 15.604-21.63 24.072-3.48 4.342-6.517 9.014-8.756 14.204-1.636 3.793-2.65 7.752-3.069 11.836-.584 5.72.195 11.241 1.877 16.674 3.2 10.342 9.065 19.1 17.12 26.412 6.502 5.896 13.837 10.493 22.07 13.48 3.312 1.199 6.687 2.128 10.136 2.754.347.063.696.125 1.046.156v-46.07c-.63-2.406-1.218-4.822-1.99-7.184-1.482-4.514-3.24-8.938-5.36-13.21-.376-.758-.652-1.57-.976-2.356l.764.074c1.956.342 3.91.684 5.862 1.036.57.101 1.054.334 1.507.63 1.536 1.578 3.062 3.164 4.56 4.775 1.174 1.264 2.212 2.65 3.346 3.942.186.212.386.413.596.597z"/><path fill="#45A538" d="M90.491 57.282c-.37-4.79-1.896-9.116-4.135-13.136-2.22-3.98-5.017-7.372-8.142-10.576-6.263-6.418-13.27-11.963-20.038-17.793-1.702-1.467-3.28-3.078-4.797-4.744a29.42 29.42 0 0 1-2.871-3.835c-.584-.954-.893-1.908-1.186-2.964L46.22 0l-2.59 4.759c-.313.588-.537.947-.833 1.527" opacity=".5"/><path fill="#B5E413" d="M51.76 99.39v28.24c3.312 1.199 6.687 2.128 10.136 2.754.347.063.696.125 1.046.156V99.39h-11.18z"/></svg>