<svg xmlns="http://www.w3.org/2000/svg" viewBox="0 0 24 24" fill="currentColor"><path d="M17.432 1.013c-.092-.066-.18-.133-.27-.2a9.664 9.664 0 0 1-.86 3.212c-1.655 3.293-4.602 4.554-5.476 4.907a8.696 8.696 0 0 1-1.767.626 7.413 7.413 0 0 1-.834.132l-.042.005a3.648 3.648 0 0 1-.37.03c-.703 0-1.382-.236-1.934-.604l-.035-.024c-.063-.042-.128-.088-.19-.137v.006c-.082-.064-.162-.132-.242-.203a6.044 6.044 0 0 1-1.965-3.468c-.252-1.413-.058-2.882.69-4.354A9.81 9.81 0 0 1 8.234.39l.152-.1-.005-.005A3.634 3.634 0 0 0 6.32 0a3.637 3.637 0 0 0-2.565 1.068L1.068 3.755A3.637 3.637 0 0 0 0 6.32a3.634 3.634 0 0 0 .286 1.427l.005-.005.1.152c.405.614.874 1.199 1.397 1.73 1.472 1.472 3.18 2.382 4.354 2.69.586.174 1.145.29 1.678.345h.006l.013.001h.004c.095.01.189.017.283.022h.037c.142.007.282.01.422.008a8.696 8.696 0 0 0 1.767-.626c.874-.353 3.82-1.614 5.476-4.907a9.664 9.664 0 0 0 .86-3.212c.025-.184.046-.37.064-.555A3.635 3.635 0 0 0 17.68 0a3.634 3.634 0 0 0-.248 1.013zM24 17.68a3.634 3.634 0 0 0-.286-1.427l-.005.005-.1-.152a10.227 10.227 0 0 0-1.397-1.73c-1.472-1.472-3.18-2.382-4.354-2.69a8.562 8.562 0 0 0-1.678-.345h-.006l-.013-.001h-.004a5.89 5.89 0 0 0-.283-.022h-.037a7.158 7.158 0 0 0-.422-.008 8.696 8.696 0 0 0-1.767.626c-.874.353-3.82 1.614-5.476 4.907a9.664 9.664 0 0 0-.86 3.212c-.025.184-.046.37-.064.555a3.635 3.635 0 0 0-.248 1.39c0 .961.378 1.883 1.068 2.565l2.687 2.687A3.637 3.637 0 0 0 13.32 28a3.634 3.634 0 0 0 2.061-.646l.005.005c.092-.066.18-.133.27-.2a9.664 9.664 0 0 0 .86-3.212c1.655-3.293 4.602-4.554 5.476-4.907a8.696 8.696 0 0 0 1.767-.626 7.413 7.413 0 0 0 .834-.132l.042-.005c.126-.017.25-.038.37-.03.703 0 1.382-.236 1.934-.604l.035-.024c.063-.042.128-.088.19-.137v.006z"/></svg>