<svg xmlns="http://www.w3.org/2000/svg" viewBox="0 0 128 128"><path d="M93.809 92.112c.785-6.533.56-7.492 5.416-6.433l1.235.108c3.742.17 8.637-.602 11.514-1.938 6.1-2.832 9.723-7.56 3.752-6.317-13.544 2.82-14.584-1.788-14.584-1.788 14.4-21.384 20.417-48.53 15.228-55.182-14.137-18.138-38.612-9.556-39.044-9.326l-.135.024c-2.698-.55-5.727-.87-9.106-.904-6.142-.062-10.802 1.6-14.274 4.222 0 0-43.395-17.878-41.387 22.49.426 8.591 12.27 64.987 26.39 47.96 5.163-6.22 10.15-11.476 10.15-11.476 2.48 1.627 5.448 2.462 8.603 2.162l.243-.22c-.072.63-.04 1.317.074 2.374-3.616 4.04-2.555 4.744-9.78 6.23-7.313 1.504-3.017 4.18-.213 4.882 3.396.85 11.256 2.054 16.572-5.382l-.214.882c1.426 1.14 2.428 7.4 2.258 13.076-.17 5.686-.034 11.373.676 14.17.71 2.798 1.578 9.09 8.312 7.22 5.632-1.564 8.548-5.62 8.94-12.39.28-4.816.837-4.104.87-8.406l.46-2.57c.53-4.394.166-5.81 3.136-5.152l.74.126z" fill="#336791"/><path d="M71.4 44.4c-.26 3.2.4 6.3 1.6 9.2" stroke="#fff" stroke-width="3.5" fill="none" stroke-linecap="round"/><path d="M57 42.4c.3 3.3 1.7 6.3 3.6 8.8" stroke="#fff" stroke-width="3.5" fill="none" stroke-linecap="round"/><ellipse cx="71" cy="43" rx="3" ry="4" fill="#336791" stroke="#fff" stroke-width="1.5"/><ellipse cx="59" cy="41" rx="3" ry="4" fill="#336791" stroke="#fff" stroke-width="1.5"/></svg>