<svg xmlns="http://www.w3.org/2000/svg" viewBox="0 0 24 24" fill="currentColor"><path d="M12 2.604l-.43.511c-.87 1.029-1.706 2.072-2.322 3.222-.88 1.64-1.212 3.26-1.212 4.863 0 2.14 1.71 3.8 3.964 3.8 2.254 0 3.964-1.66 3.964-3.8 0-1.603-.333-3.222-1.212-4.863-.616-1.15-1.452-2.193-2.322-3.222L12 2.604zM12 0l.663.786c.942 1.115 1.854 2.253 2.536 3.525.968 1.807 1.337 3.592 1.337 5.489 0 3.006-2.468 5.4-5.536 5.4-3.068 0-5.536-2.394-5.536-5.4 0-1.897.369-3.682 1.337-5.489C7.483 3.039 8.395 1.901 9.337.786L12 0zm4.577 14.6c-.656 1.442-1.93 2.577-3.49 3.048L12 24l-1.087-6.352c-1.56-.471-2.834-1.606-3.49-3.048C5.353 15.625 4 17.642 4 20c0 2.967 3.582 4 8 4s8-1.033 8-4c0-2.358-1.353-4.375-3.423-5.4z"/></svg>