<svg version="1.1" id="Layer_1" xmlns="http://www.w3.org/2000/svg" xmlns:xlink="http://www.w3.org/1999/xlink" x="0px" y="0px"
	 width="100%" viewBox="0 0 154 148" enable-background="new 0 0 154 148" xml:space="preserve">
<path fill="#FDFDFD" opacity="1.000000" stroke="none" 
	d="
M155.000000,55.000000 
	C155.000000,86.666664 155.000000,117.833336 155.000000,149.000000 
	C103.666664,149.000000 52.333332,149.000000 1.000000,149.000000 
	C1.000000,99.666664 1.000000,50.333332 1.000000,1.000000 
	C52.333332,1.000000 103.666664,1.000000 155.000000,1.000000 
	C155.000000,18.833334 155.000000,36.666668 155.000000,55.000000 
M63.500904,75.919930 
	C63.340569,75.968872 63.180237,76.017822 62.256302,75.969025 
	C51.667233,78.436569 46.101624,85.365135 46.060825,96.208237 
	C46.029507,104.531380 46.053097,112.854721 46.054455,121.177979 
	C46.056385,132.994293 50.198551,139.040817 61.255779,142.925903 
	C74.283745,147.503479 87.377930,147.441498 100.372025,142.804642 
	C111.745956,138.745926 115.958527,131.952667 115.210297,119.861557 
	C115.027565,116.908615 113.884476,115.661285 110.951859,115.707779 
	C102.304016,115.844864 93.654694,115.887970 84.545753,115.809486 
	C84.545753,115.809486 84.059860,115.781731 83.913177,114.921272 
	C83.187088,111.611862 85.464134,111.986107 87.481239,111.987404 
	C100.479790,111.995811 113.478577,111.945374 126.476814,112.008934 
	C134.687897,112.049080 140.437546,108.391968 143.877991,100.969292 
	C151.350143,84.848351 150.702545,68.617004 144.046204,52.540226 
	C140.448395,43.850594 134.807785,41.247383 125.400940,42.647614 
	C121.420319,43.240139 115.402290,42.256969 113.902496,44.448421 
	C111.862732,47.428852 113.234901,52.764538 113.196625,57.090660 
	C113.095116,68.562523 105.921066,75.736115 94.469070,75.806908 
	C84.309868,75.869713 74.150803,75.954613 63.500904,75.919930 
M70.498413,33.009239 
	C70.498413,33.009239 70.972397,32.881870 71.690384,33.302872 
	C73.065033,36.577446 71.210915,36.875614 68.606667,36.862778 
	C56.453266,36.802883 44.298954,36.773232 32.145824,36.856735 
	C20.467505,36.936970 12.079769,43.378746 9.188047,54.503586 
	C6.734333,63.943352 6.066401,73.451782 7.856356,83.161743 
	C11.412066,102.450386 17.582502,107.526436 37.205555,107.125031 
	C41.061756,107.046150 42.638344,105.408104 42.630665,101.770241 
	C42.622234,97.774544 42.512207,93.774170 42.662678,89.783989 
	C43.035786,79.889778 50.122246,73.060150 60.009029,73.014656 
	C69.665192,72.970230 79.321770,73.027069 88.978065,73.001205 
	C101.875504,72.966660 109.738487,65.104202 109.833893,52.097633 
	C109.894958,43.773628 109.466019,35.427460 109.932983,27.129286 
	C110.661987,14.174764 101.394119,5.025153 89.267990,4.027045 
	C83.577942,3.558695 77.810989,3.844117 72.086464,4.026145 
	C66.382591,4.207516 60.581261,4.123624 55.016926,5.179644 
	C48.184429,6.476339 42.360741,9.905961 41.196079,17.656551 
	C40.607094,21.576134 40.608696,25.640186 40.889446,29.600199 
	C40.971821,30.762161 42.927689,31.791302 44.498886,33.009140 
	C44.498886,33.009140 44.976990,32.897697 45.903721,33.067825 
	C53.942635,33.011116 61.981548,32.954407 70.498413,33.009239 
z"/>
<path fill="#2A5F89" opacity="1.000000" stroke="none" 
	d="
M44.024902,32.881317 
	C42.927689,31.791302 40.971821,30.762161 40.889446,29.600199 
	C40.608696,25.640186 40.607094,21.576134 41.196079,17.656551 
	C42.360741,9.905961 48.184429,6.476339 55.016926,5.179644 
	C60.581261,4.123624 66.382591,4.207516 72.086464,4.026145 
	C77.810989,3.844117 83.577942,3.558695 89.267990,4.027045 
	C101.394119,5.025153 110.661987,14.174764 109.932983,27.129286 
	C109.466019,35.427460 109.894958,43.773628 109.833893,52.097633 
	C109.738487,65.104202 101.875504,72.966660 88.978065,73.001205 
	C79.321770,73.027069 69.665192,72.970230 60.009029,73.014656 
	C50.122246,73.060150 43.035786,79.889778 42.662678,89.783989 
	C42.512207,93.774170 42.622234,97.774544 42.630665,101.770241 
	C42.638344,105.408104 41.061756,107.046150 37.205555,107.125031 
	C17.582502,107.526436 11.412066,102.450386 7.856356,83.161743 
	C6.066401,73.451782 6.734333,63.943352 9.188047,54.503586 
	C12.079769,43.378746 20.467505,36.936970 32.145824,36.856735 
	C44.298954,36.773232 56.453266,36.802883 68.606667,36.862778 
	C71.210915,36.875614 73.065033,36.577446 71.242264,32.942253 
	C70.536247,32.686989 70.278351,32.792343 70.020462,32.897697 
	C61.981548,32.954407 53.942635,33.011116 45.355492,32.830074 
	C44.546478,32.688656 44.285690,32.784988 44.024902,32.881317 
M79.492752,66.990814 
	C82.156601,66.990822 84.820450,66.991417 87.484299,66.990730 
	C98.985115,66.987755 103.963715,62.089191 103.987495,50.717861 
	C104.004555,42.559959 104.001358,34.401970 103.987938,26.244051 
	C103.973846,17.670900 98.590836,10.741055 90.156189,10.195136 
	C80.294609,9.556864 70.278755,9.298117 60.473953,10.293879 
	C48.214951,11.538885 45.394833,15.820004 47.760071,26.995710 
	C54.889717,26.995710 62.166611,26.995531 69.443504,26.995754 
	C78.037025,26.996019 78.037025,26.996172 78.009163,35.761837 
	C78.008636,35.928326 78.010124,36.094822 78.008904,36.261303 
	C77.965698,42.150200 77.198097,42.974918 71.427185,42.986053 
	C58.274635,43.011429 45.121998,42.989006 31.969404,42.996017 
	C22.896986,43.000854 16.733402,47.514252 15.055605,56.629391 
	C13.746135,63.743481 12.880109,71.123627 13.271732,78.306236 
	C13.568445,83.748138 15.636617,89.293610 17.865530,94.376846 
	C20.372488,100.094193 27.855124,103.012131 34.654949,100.786476 
	C39.712204,99.131195 35.824425,94.108627 36.940121,90.804375 
	C37.141994,90.206505 37.063438,89.466469 36.955372,88.818581 
	C35.410999,79.559517 47.851822,66.381058 58.519749,66.929070 
	C65.161736,67.270271 71.835571,66.991386 79.492752,66.990814 
z"/>
<path fill="#C19A18" opacity="1.000000" stroke="none" 
	d="
M85.005951,115.967857 
	C93.654694,115.887970 102.304016,115.844864 110.951859,115.707779 
	C113.884476,115.661285 115.027565,116.908615 115.210297,119.861557 
	C115.958527,131.952667 111.745956,138.745926 100.372025,142.804642 
	C87.377930,147.441498 74.283745,147.503479 61.255779,142.925903 
	C50.198551,139.040817 46.056385,132.994293 46.054455,121.177979 
	C46.053097,112.854721 46.029507,104.531380 46.060825,96.208237 
	C46.101624,85.365135 51.667233,78.436569 62.730579,76.174118 
	C63.467133,76.262726 63.729404,76.146248 63.991680,76.029762 
	C74.150803,75.954613 84.309868,75.869713 94.469070,75.806908 
	C105.921066,75.736115 113.095116,68.562523 113.196625,57.090660 
	C113.234901,52.764538 111.862732,47.428852 113.902496,44.448421 
	C115.402290,42.256969 121.420319,43.240139 125.400940,42.647614 
	C134.807785,41.247383 140.448395,43.850594 144.046204,52.540226 
	C150.702545,68.617004 151.350143,84.848351 143.877991,100.969292 
	C140.437546,108.391968 134.687897,112.049080 126.476814,112.008934 
	C113.478577,111.945374 100.479790,111.995811 87.481239,111.987404 
	C85.464134,111.986107 83.187088,111.611862 84.043671,115.542366 
	C84.451424,116.098259 84.728683,116.033058 85.005951,115.967857 
M99.653389,135.976730 
	C106.973663,134.040390 109.804955,129.683807 108.256752,121.942474 
	C101.610527,121.942474 94.828712,121.864746 88.049301,121.959450 
	C75.793251,122.130646 78.284637,121.023323 77.880089,111.977760 
	C77.678757,107.475914 79.031532,105.796135 83.773117,105.886292 
	C98.087708,106.158493 112.410805,105.975235 126.730560,105.989700 
	C131.184174,105.994194 134.996674,104.648376 137.187927,100.536438 
	C145.559418,84.827065 144.943466,68.948936 137.541077,53.156479 
	C135.166046,48.089504 128.322327,45.911819 121.246613,48.109035 
	C116.697838,49.521576 119.958984,53.860786 119.088135,56.739952 
	C118.810883,57.656590 119.053886,58.725578 119.028137,59.724064 
	C118.764030,69.966637 110.899139,79.906914 100.742615,80.893761 
	C89.535507,81.982666 78.193352,81.755898 66.907372,81.936523 
	C56.925980,82.096275 52.042633,86.929871 52.015293,97.065491 
	C51.992832,105.390877 52.007732,113.716377 52.011429,122.041824 
	C52.014946,129.948639 55.125965,134.136246 62.522846,137.048035 
	C70.816986,140.313049 79.444016,140.624161 88.049400,139.773804 
	C91.765488,139.406601 95.298164,137.183304 98.987427,135.881744 
	C98.987427,135.881744 98.912811,135.819733 99.653389,135.976730 
z"/>
<path fill="#145482" opacity="1.000000" stroke="none" 
	d="
M44.261894,32.945229 
	C44.285690,32.784988 44.546478,32.688656 44.892128,32.745010 
	C44.976990,32.897697 44.498886,33.009140 44.261894,32.945229 
z"/>
<path fill="#145482" opacity="1.000000" stroke="none" 
	d="
M70.259438,32.953468 
	C70.278351,32.792343 70.536247,32.686989 70.883270,32.731750 
	C70.972397,32.881870 70.498413,33.009239 70.259438,32.953468 
z"/>
<path fill="#BD9400" opacity="1.000000" stroke="none" 
	d="
M63.746292,75.974846 
	C63.729404,76.146248 63.467133,76.262726 63.112381,76.222992 
	C63.180237,76.017822 63.340569,75.968872 63.746292,75.974846 
z"/>
<path fill="#BD9401" opacity="1.000000" stroke="none" 
	d="
M84.775848,115.888672 
	C84.728683,116.033058 84.451424,116.098259 84.117004,115.972595 
	C84.059860,115.781731 84.545753,115.809486 84.775848,115.888672 
z"/>
<path fill="#347AB4" opacity="1.000000" stroke="none" 
	d="
M78.993935,66.990799 
	C71.835571,66.991386 65.161736,67.270271 58.519749,66.929070 
	C47.851822,66.381058 35.410999,79.559517 36.955372,88.818581 
	C37.063438,89.466469 37.141994,90.206505 36.940121,90.804375 
	C35.824425,94.108627 39.712204,99.131195 34.654949,100.786476 
	C27.855124,103.012131 20.372488,100.094193 17.865530,94.376846 
	C15.636617,89.293610 13.568445,83.748138 13.271732,78.306236 
	C12.880109,71.123627 13.746135,63.743481 15.055605,56.629391 
	C16.733402,47.514252 22.896986,43.000854 31.969404,42.996017 
	C45.121998,42.989006 58.274635,43.011429 71.427185,42.986053 
	C77.198097,42.974918 77.965698,42.150200 78.008904,36.261303 
	C78.010124,36.094822 78.008636,35.928326 78.009163,35.761837 
	C78.037025,26.996172 78.037025,26.996019 69.443504,26.995754 
	C62.166611,26.995531 54.889717,26.995710 47.760071,26.995710 
	C45.394833,15.820004 48.214951,11.538885 60.473953,10.293879 
	C70.278755,9.298117 80.294609,9.556864 90.156189,10.195136 
	C98.590836,10.741055 103.973846,17.670900 103.987938,26.244051 
	C104.001358,34.401970 104.004555,42.559959 103.987495,50.717861 
	C103.963715,62.089191 98.985115,66.987755 87.484299,66.990730 
	C84.820450,66.991417 82.156601,66.990822 78.993935,66.990799 
M51.701904,17.792173 
	C53.147713,20.630310 54.593521,23.468449 56.136044,26.496433 
	C60.332039,23.642488 64.226715,21.987070 62.750462,17.424427 
	C62.194374,15.705734 59.760799,13.204942 58.534115,13.389799 
	C56.174946,13.745317 54.066097,15.761911 51.701904,17.792173 
z"/>
<path fill="#FFCA1D" opacity="1.000000" stroke="none" 
	d="
M98.914154,135.803162 
	C95.298164,137.183304 91.765488,139.406601 88.049400,139.773804 
	C79.444016,140.624161 70.816986,140.313049 62.522846,137.048035 
	C55.125965,134.136246 52.014946,129.948639 52.011429,122.041824 
	C52.007732,113.716377 51.992832,105.390877 52.015293,97.065491 
	C52.042633,86.929871 56.925980,82.096275 66.907372,81.936523 
	C78.193352,81.755898 89.535507,81.982666 100.742615,80.893761 
	C110.899139,79.906914 118.764030,69.966637 119.028137,59.724064 
	C119.053886,58.725578 118.810883,57.656590 119.088135,56.739952 
	C119.958984,53.860786 116.697838,49.521576 121.246613,48.109035 
	C128.322327,45.911819 135.166046,48.089504 137.541077,53.156479 
	C144.943466,68.948936 145.559418,84.827065 137.187927,100.536438 
	C134.996674,104.648376 131.184174,105.994194 126.730560,105.989700 
	C112.410805,105.975235 98.087708,106.158493 83.773117,105.886292 
	C79.031532,105.796135 77.678757,107.475914 77.880089,111.977760 
	C78.284637,121.023323 75.793251,122.130646 88.049301,121.959450 
	C94.828712,121.864746 101.610527,121.942474 108.256752,121.942474 
	C109.804955,129.683807 106.973663,134.040390 99.386681,135.581207 
	C99.554871,134.688675 100.061974,134.237625 100.412460,133.686890 
	C102.154785,130.949219 102.160904,127.964516 99.476227,126.257942 
	C97.738792,125.153496 94.458565,124.628250 92.921181,125.566490 
	C91.321396,126.542816 90.132805,129.658966 90.296661,131.717484 
	C90.545959,134.849365 93.161018,136.318253 96.448959,136.004303 
	C97.269608,135.925934 98.092369,135.869614 98.914154,135.803162 
z"/>
<path fill="#F6F8FA" opacity="1.000000" stroke="none" 
	d="
M51.777664,17.440872 
	C54.066097,15.761911 56.174946,13.745317 58.534115,13.389799 
	C59.760799,13.204942 62.194374,15.705734 62.750462,17.424427 
	C64.226715,21.987070 60.332039,23.642488 56.136044,26.496433 
	C54.593521,23.468449 53.147713,20.630310 51.777664,17.440872 
z"/>
<path fill="#FFFCF3" opacity="1.000000" stroke="none" 
	d="
M98.950790,135.842453 
	C98.092369,135.869614 97.269608,135.925934 96.448959,136.004303 
	C93.161018,136.318253 90.545959,134.849365 90.296661,131.717484 
	C90.132805,129.658966 91.321396,126.542816 92.921181,125.566490 
	C94.458565,124.628250 97.738792,125.153496 99.476227,126.257942 
	C102.160904,127.964516 102.154785,130.949219 100.412460,133.686890 
	C100.061974,134.237625 99.554871,134.688675 99.016388,135.502701 
	C98.912811,135.819733 98.987427,135.881744 98.950790,135.842453 
z"/>
</svg>