<svg version="1.1" id="Layer_1" xmlns="http://www.w3.org/2000/svg" xmlns:xlink="http://www.w3.org/1999/xlink" x="0px" y="0px"
	 width="100%" viewBox="0 0 201 148" enable-background="new 0 0 201 148" xml:space="preserve">
<path fill="none" opacity="1.000000" stroke="#000000" stroke-linecap="round" stroke-linejoin="round" stroke-width="4.000000"
	d="
M26.500000,2.000000 
	C30.547817,4.247540 29.120953,8.709223 30.342079,12.057593 
	C32.268951,17.341133 32.596962,23.223429 34.644176,28.443457 
	C37.204548,34.971966 37.604382,41.886238 39.459335,48.511387 
	C41.311382,55.126148 42.800915,61.841671 44.512802,68.496704 
	C45.459442,72.176819 47.052410,75.584763 47.674404,79.472092 
	C49.128426,88.559456 51.494385,97.501251 53.502335,106.499481 
	C54.524353,111.079453 57.815422,113.294609 62.002182,114.492378 
	C70.828354,117.017418 79.654884,119.542816 88.505920,121.978500 
	C91.948463,122.925850 95.030785,123.023689 98.063927,120.065552 
	C113.759712,104.757851 129.672684,89.672943 145.491821,74.491470 
	C147.309296,72.747253 149.353439,71.140076 150.000000,68.500000 
"/>
<path fill="none" opacity="1.000000" stroke="#000000" stroke-linecap="round" stroke-linejoin="round" stroke-width="4.000000"
	d="
M56.750000,113.000000 
	C55.448734,117.996338 57.980518,122.380936 59.015759,126.996468 
	C60.590576,134.017654 62.270031,141.015366 63.928341,148.122894 
	C66.809898,149.001312 68.848816,148.356659 71.080193,146.078552 
	C77.180595,139.850403 83.703705,134.038254 89.972290,127.971367 
	C91.423744,126.566597 93.465881,125.459450 93.500000,123.000000 
"/>
<path fill="none" opacity="1.000000" stroke="#000000" stroke-linecap="round" stroke-linejoin="round" stroke-width="4.000000"
	d="
M75.000000,47.500000 
	C77.333336,56.833332 80.386902,66.060196 81.787018,75.531487 
	C83.056664,84.120171 87.502434,87.545555 95.469368,89.151909 
	C104.242577,90.920837 112.777832,93.869926 122.354378,96.569168 
	C119.052216,83.245232 115.929070,70.643585 112.679352,57.531265 
	C101.900208,54.597233 90.602707,51.861095 79.528229,48.409435 
	C69.089684,45.155983 58.547909,42.335239 48.034927,39.375916 
	C45.000286,38.521690 41.572063,38.267075 39.000000,36.000000 
"/>
<path fill="none" opacity="1.000000" stroke="#000000" stroke-linecap="round" stroke-linejoin="round" stroke-width="4.000000"
	d="
M39.000000,34.000000 
	C46.000000,27.333334 53.350197,20.988205 59.873299,13.883668 
	C64.020844,9.366437 68.490707,8.845050 73.470520,10.584397 
	C81.210083,13.287666 89.300453,14.866167 96.944702,17.651751 
	C109.245583,22.134230 122.205215,24.150665 134.492340,28.521538 
	C147.782394,33.249184 161.784592,35.516018 175.059860,40.335094 
	C176.355759,40.805523 177.691406,42.555317 179.500000,41.500000 
"/>
<path fill="none" opacity="1.000000" stroke="#000000" stroke-linecap="round" stroke-linejoin="round" stroke-width="4.000000"
	d="
M113.500000,58.000000 
	C124.333336,61.166668 135.153717,64.378777 146.007370,67.474144 
	C149.570694,68.490372 152.641678,68.187599 155.581772,65.077293 
	C162.864151,57.373306 171.163040,50.663036 178.000000,42.500000 
"/>
<path fill="none" opacity="1.000000" stroke="#000000" stroke-linecap="round" stroke-linejoin="round" stroke-width="4.000000"
	d="
M84.000000,85.500000 
	C74.000000,82.666664 64.002769,79.823471 53.997639,77.008385 
	C52.013996,76.450256 50.000000,76.000000 48.000000,75.500000 
"/>
<path fill="none" opacity="1.000000" stroke="#000000" stroke-linecap="round" stroke-linejoin="round" stroke-width="4.000000"
	d="
M104.000000,21.000000 
	C105.946068,33.160133 110.453056,44.751171 112.000000,57.000000 
"/>
<path fill="none" opacity="1.000000" stroke="#000000" stroke-linecap="round" stroke-linejoin="round" stroke-width="4.000000"
	d="
M142.000000,32.000000 
	C144.166672,41.333332 146.115677,50.726219 148.642319,59.961060 
	C149.334641,62.491535 149.864914,64.927017 150.000000,67.500000 
"/>
<path fill="none" opacity="1.000000" stroke="#000000" stroke-linecap="round" stroke-linejoin="round" stroke-width="4.000000"
	d="
M85.000000,86.500000 
	C86.849625,98.568871 91.061584,110.072105 93.500000,122.000000 
"/>
<path fill="none" opacity="1.000000" stroke="#000000" stroke-linecap="round" stroke-linejoin="round" stroke-width="4.000000"
	d="
M65.500000,10.500000 
	C68.940414,22.187977 72.025810,33.960957 74.000000,46.000000 
"/>
<path fill="none" opacity="1.000000" stroke="#000000" stroke-linecap="round" stroke-linejoin="round" stroke-width="4.000000"
	d="
M64.000000,9.000000 
	C54.561871,4.945527 44.798805,2.169143 34.500000,1.500000 
"/>
<path fill="none" opacity="1.000000" stroke="#000000" stroke-linecap="round" stroke-linejoin="round" stroke-width="4.000000"
	d="
M101.499992,20.999996 
	C93.333328,28.999996 85.166664,36.999996 76.999992,44.999996 
"/>
<path fill="none" opacity="1.000000" stroke="#000000" stroke-linecap="round" stroke-linejoin="round" stroke-width="4.000000"
	d="
M72.500000,49.000004 
	C64.333336,57.000004 56.166668,65.000000 48.000004,73.000000 
"/>
<path fill="none" opacity="1.000000" stroke="#000000" stroke-linecap="round" stroke-linejoin="round" stroke-width="4.000000"
	d="
M110.500000,59.999996 
	C102.333328,67.833328 94.166664,75.666664 86.000000,83.500000 
"/>
<path fill="none" opacity="1.000000" stroke="#000000" stroke-linecap="round" stroke-linejoin="round" stroke-width="4.000000"
	d="
M139.500000,32.000000 
	C131.333328,40.000000 123.166672,48.000000 115.000000,56.000000 
"/>
<path fill="none" opacity="1.000000" stroke="#000000" stroke-linecap="round" stroke-linejoin="round" stroke-width="4.000000"
	d="
M82.000000,87.500000 
	C74.000000,95.166672 66.000000,102.833336 58.000000,110.500000 
"/>
</svg>