<svg version="1.1" id="Layer_1" xmlns="http://www.w3.org/2000/svg" xmlns:xlink="http://www.w3.org/1999/xlink" x="0px" y="0px"
	 width="100%" viewBox="0 0 1008 1024" enable-background="new 0 0 1008 1024" xml:space="preserve">
<path fill="#000000" opacity="1.000000" stroke="none" 
	d="
M1.000000,867.000000 
	C1.000000,578.418884 1.000000,289.837738 1.000000,1.000000 
	C193.357346,1.000000 385.714813,1.000000 578.407227,1.213402 
	C581.712341,6.890367 581.494568,13.341666 584.152283,18.898338 
	C585.000427,20.671587 586.577393,21.684788 588.360779,22.206722 
	C600.646240,25.802380 612.537354,31.017900 625.324829,32.562656 
	C643.031738,34.701687 660.618286,37.530712 678.108887,40.909401 
	C694.636719,44.102104 710.017334,50.497070 723.786255,60.177765 
	C736.309265,68.982414 749.701233,75.966553 764.233704,80.483047 
	C778.844299,85.023842 793.475403,89.423141 807.998169,94.294418 
	C832.592468,102.543930 856.602356,112.494522 881.597229,119.563576 
	C885.036865,120.536385 888.413574,121.072372 891.923706,120.232811 
	C903.283020,117.515854 915.065002,117.718880 926.472168,115.212891 
	C929.320557,114.587135 932.449402,114.966728 935.420776,115.219833 
	C947.696533,116.265465 959.395935,120.826790 971.791382,121.260315 
	C973.051819,121.304398 974.528198,121.810616 975.494446,122.602554 
	C985.362610,130.689941 996.444946,133.731155 1009.000000,131.000000 
	C1009.000000,264.690765 1009.000000,398.381500 1008.747925,532.320068 
	C1007.117615,531.261841 1005.334717,530.791016 1003.968506,532.006958 
	C1001.557556,534.152832 998.565613,534.370544 995.744141,535.238037 
	C991.720215,536.475281 988.236023,538.534119 984.996643,541.340088 
	C975.605347,549.474854 967.880005,559.481934 957.151611,566.115234 
	C956.037170,566.804260 955.076355,567.798035 954.179932,568.774963 
	C942.652405,581.336975 928.297180,590.493225 915.240906,601.214661 
	C907.557800,607.523743 899.757568,613.674561 892.456116,620.480225 
	C885.027283,627.404541 878.431519,635.108459 871.084167,642.053650 
	C864.454773,648.320190 857.891174,654.669495 851.062805,660.751526 
	C839.906738,670.688049 829.344788,681.328735 818.972595,692.096558 
	C810.789490,700.591797 802.361938,708.843933 794.850525,718.039917 
	C788.254211,726.115662 782.422668,734.997375 774.222717,741.660828 
	C766.457886,747.970703 759.970154,755.581360 752.448975,762.173767 
	C736.585632,776.077942 722.004456,791.377930 706.329956,805.533386 
	C686.085876,823.815674 666.102844,842.400879 644.981323,859.659058 
	C625.718079,875.398743 607.372986,891.858032 593.136169,912.520020 
	C581.634277,929.212769 567.469910,943.781128 554.552795,959.341003 
	C547.771484,967.509888 539.721558,974.627258 532.221008,982.196289 
	C530.572815,983.859558 528.724487,985.435242 528.031921,987.717407 
	C525.131409,997.274780 519.412292,1004.264038 510.567139,1009.162842 
	C505.328430,1012.064331 503.794373,1019.262634 506.000000,1025.000000 
	C373.309265,1025.000000 240.618515,1025.000000 107.491760,1024.702637 
	C105.952965,1017.395142 102.857086,1011.286865 97.337540,1006.949890 
	C88.680489,1000.147644 81.065819,992.433655 74.043449,983.981018 
	C70.218575,979.377136 64.905724,976.825195 58.676609,976.918091 
	C55.346329,976.967773 51.660587,976.793396 49.882248,980.285522 
	C48.256023,983.478882 51.183376,985.392639 52.835533,987.593994 
	C55.717991,991.434631 55.352116,995.467041 51.488213,997.343079 
	C42.482914,1001.715271 33.196407,1004.641479 23.197079,1000.416016 
	C19.802633,998.981628 16.306328,998.393616 12.579876,998.129211 
	C9.294662,997.896179 4.982931,999.003540 3.273047,993.750488 
	C2.340760,996.313660 1.670369,998.156860 0.999989,1000.000000 
	C1.000000,968.975891 1.000000,937.951843 1.172457,906.711060 
	C1.901916,907.456665 1.750411,908.834656 3.016071,909.384949 
	C7.027753,906.137390 8.734532,905.965698 13.587493,908.976379 
	C16.566633,910.824646 19.235434,911.274536 22.361168,909.235779 
	C31.499083,903.275635 34.787846,903.864075 41.469173,912.433594 
	C42.793266,914.131836 43.836418,916.046326 45.062527,917.824280 
	C47.440414,921.272522 50.882671,922.827026 54.929619,922.626953 
	C63.112621,922.222473 68.746353,917.286133 71.217377,909.388855 
	C73.539520,901.967529 72.323013,894.710510 71.707130,887.213928 
	C70.524292,872.816345 55.468460,858.307495 39.183414,863.409119 
	C33.072319,865.323486 28.593571,862.005554 25.219301,857.141602 
	C24.283876,855.793213 23.700710,854.190308 23.028305,852.672058 
	C22.140100,850.666565 21.332388,848.573364 18.731264,848.335693 
	C16.189270,848.103394 14.966892,849.885681 13.601689,851.658813 
	C11.289822,854.661194 9.283471,858.611694 6.165482,860.090149 
	C2.693628,861.736450 1.851024,864.059387 1.000000,867.000000 
M433.891968,589.439819 
	C496.921936,607.261963 559.951904,625.084106 624.701233,643.392395 
	C605.357849,566.350586 586.401611,490.850800 567.092590,413.945770 
	C510.105530,469.241211 454.139404,523.546021 397.115906,578.876831 
	C409.949829,582.545776 421.538483,585.858765 433.891968,589.439819 
M388.794556,625.465027 
	C386.131104,615.655762 384.352264,605.590088 380.606842,594.906494 
	C323.899414,649.965820 267.984192,704.255920 211.075729,759.510437 
	C287.476135,781.149536 362.291687,802.339783 438.676483,823.974487 
	C421.863586,757.062866 405.430725,691.663879 388.794556,625.465027 
M236.763458,533.598389 
	C282.620300,546.557007 328.477142,559.515686 375.602386,572.832703 
	C356.306763,495.969116 337.359772,420.494293 318.412781,345.019470 
	C317.839325,344.902496 317.265869,344.785522 316.692413,344.668579 
	C260.800659,398.949646 204.908936,453.230713 148.091370,508.410950 
	C178.435211,517.033569 207.209259,525.210144 236.763458,533.598389 
M352.749054,812.989136 
	C304.894409,799.464111 257.039764,785.939148 209.185120,772.414124 
	C208.789429,772.943542 208.393753,773.472961 207.998062,774.002380 
	C226.894821,849.294861 245.791580,924.587341 265.049988,1001.320801 
	C322.138184,945.917236 378.061920,891.643799 435.064728,836.323059 
	C406.862610,828.327637 380.194885,820.767212 352.749054,812.989136 
M778.127136,333.128876 
	C769.910278,300.479523 761.693420,267.830170 753.476562,235.180817 
	C752.885315,235.056458 752.294128,234.932114 751.702881,234.807755 
	C695.845215,289.018768 639.987549,343.229767 583.133789,398.407501 
	C659.282898,419.968750 734.062439,441.142212 808.841919,462.315674 
	C809.296753,461.856934 809.751587,461.398193 810.206421,460.939423 
	C799.599792,418.597382 788.993164,376.255341 778.127136,333.128876 
M586.115723,436.612671 
	C586.204102,437.104431 586.263794,437.603394 586.385132,438.086914 
	C601.146729,496.950134 615.869385,555.823181 630.730225,614.661377 
	C632.744141,622.634888 634.187134,630.798767 637.591309,639.774780 
	C694.105347,584.922180 749.959229,530.710388 805.813110,476.498535 
	C805.567200,475.863617 805.321228,475.228699 805.075256,474.593750 
	C730.360107,453.453125 655.644897,432.312469 579.604126,410.796753 
	C581.944519,420.126434 583.913147,427.973877 586.115723,436.612671 
M783.542053,302.138947 
	C796.630066,354.079224 809.718079,406.019501 823.214111,459.579010 
	C880.120361,404.159821 936.207153,350.375763 991.769287,295.798828 
	C988.368347,292.728424 985.279236,292.414581 982.454651,291.613586 
	C912.968445,271.908905 843.469177,252.250046 773.952393,232.653564 
	C771.858215,232.063232 769.385742,230.160141 767.409363,232.305359 
	C765.559570,234.313171 767.301147,236.772186 767.828735,238.915573 
	C772.953674,259.734680 778.187378,280.527039 783.542053,302.138947 
M129.099747,214.601944 
	C114.730568,228.581314 100.361389,242.560669 85.111626,257.396729 
	C161.269302,278.946869 236.041733,300.105011 310.771973,321.251251 
	C312.213928,317.588867 310.864136,315.252563 310.282196,312.921753 
	C294.692413,250.481476 279.038788,188.057144 263.387787,125.632141 
	C261.123352,116.600258 258.905731,107.555099 256.493835,98.562370 
	C255.283386,94.049179 253.844162,93.721169 250.377686,96.745094 
	C249.750717,97.292007 249.167145,97.889122 248.569916,98.469620 
	C208.914337,137.014709 169.259369,175.560471 129.099747,214.601944 
M469.210297,196.712555 
	C424.470642,240.138809 379.731018,283.565063 334.068970,327.886627 
	C410.325226,349.474976 485.154724,370.659363 561.625366,392.308380 
	C542.348389,315.565247 523.437195,240.277969 504.525940,164.990692 
	C503.902405,164.837769 503.278839,164.684845 502.655273,164.531921 
	C491.675751,175.094284 480.696228,185.656662 469.210297,196.712555 
M616.972046,659.637878 
	C617.864014,658.505981 619.352234,657.771484 619.436340,655.253784 
	C544.657532,634.095947 469.738251,612.898438 393.523682,591.334473 
	C412.811768,668.197327 431.742676,743.636902 450.673615,819.076477 
	C451.290344,819.196960 451.907074,819.317444 452.523834,819.437927 
	C507.179291,766.329712 561.834778,713.221497 616.972046,659.637878 
M337.724762,368.957458 
	C354.409332,435.461395 371.093933,501.965363 388.074402,569.648682 
	C445.043365,514.352234 501.021881,460.017151 558.022522,404.689972 
	C481.626495,383.066528 406.702087,361.859650 330.583832,340.314850 
	C333.114777,350.485687 335.314056,359.323730 337.724762,368.957458 
M188.449356,696.211548 
	C192.882980,713.693481 197.316589,731.175415 202.111389,750.081421 
	C259.163055,694.712219 315.105072,640.419922 371.955994,585.245544 
	C295.659760,563.650696 220.749725,542.448181 144.437637,520.848816 
	C159.317245,580.071411 173.806015,637.738464 188.449356,696.211548 
M242.835785,398.333710 
	C264.522095,377.255066 286.208435,356.176422 308.855164,334.164276 
	C232.733490,312.615662 157.837936,291.414093 81.447617,269.789429 
	C100.777626,346.793060 119.730270,422.293365 139.004623,499.075256 
	C174.246689,464.878723 208.285248,431.850006 242.835785,398.333710 
M417.391083,228.889740 
	C442.896851,204.104538 468.402618,179.319336 493.966003,154.478119 
	C491.583801,152.269974 489.335541,152.075027 487.299866,151.496155 
	C450.641144,141.071823 413.967102,130.701248 377.293823,120.328171 
	C342.863281,110.589478 308.433563,100.847801 273.993530,91.142693 
	C268.670685,89.642715 267.987640,90.278076 269.218262,95.686150 
	C270.656403,102.006035 272.291748,108.281342 273.864532,114.570244 
	C289.069519,175.369049 304.268066,236.169449 319.503906,296.960510 
	C321.177826,303.639374 323.073334,310.262695 325.227417,318.251984 
	C356.449677,287.980377 386.667725,258.682404 417.391083,228.889740 
M125.495415,199.995224 
	C165.111557,161.506149 204.727707,123.017090 244.235413,84.633369 
	C242.585999,81.900696 240.488174,81.677483 238.632111,81.130379 
	C232.407745,79.295639 226.158203,77.545929 219.914658,75.776527 
	C155.708328,57.580723 91.503876,39.378330 27.290928,21.205938 
	C19.916115,19.118851 18.907202,20.115084 20.546700,27.485182 
	C20.691074,28.134199 20.940207,28.759264 21.102077,29.405128 
	C26.158033,49.578281 31.200165,69.754906 36.262878,89.926361 
	C48.127449,137.198563 59.963448,184.478043 71.930603,231.724289 
	C73.129166,236.456223 73.488129,241.551346 77.027733,246.827759 
	C93.271919,231.131165 109.129349,215.808289 125.495415,199.995224 
M561.771057,339.893250 
	C565.796753,355.786652 569.822510,371.680023 574.200378,388.963593 
	C630.935852,333.872955 686.722412,279.703796 742.650085,225.397537 
	C739.402649,222.389450 736.351257,222.054245 733.520691,221.252060 
	C664.030762,201.558640 594.534241,181.888840 525.042847,162.200699 
	C518.405029,160.320099 517.041931,161.530579 518.708923,168.203735 
	C524.435181,191.126251 530.226929,214.032410 535.968018,236.951248 
	C544.496826,270.998901 553.003723,305.052094 561.771057,339.893250 
z"/>
</svg>