<svg xmlns="http://www.w3.org/2000/svg" viewBox="0 0 256 256" preserveAspectRatio="xMidYMid">
  <rect width="256" height="256" rx="20" fill="#3178C6"/>
  <path d="M150.518 200.475v27.62c4.492 2.302 9.805 4.028 15.938 5.179 6.133 1.151 12.597 1.726 19.393 1.726 6.622 0 12.914-.633 18.874-1.899 5.96-1.266 11.187-3.352 15.678-6.257 4.492-2.906 8.048-6.796 10.669-11.672 2.621-4.875 3.932-10.94 3.932-18.193 0-5.237-.69-9.806-2.071-13.706-1.38-3.9-3.41-7.39-6.088-10.469-2.678-3.079-5.96-5.876-9.846-8.394-3.886-2.517-8.336-4.876-13.35-7.076-3.627-1.613-6.882-3.137-9.764-4.572-2.883-1.435-5.332-2.906-7.348-4.413-2.016-1.508-3.562-3.108-4.64-4.803-1.076-1.695-1.614-3.632-1.614-5.81 0-2.006.452-3.812 1.355-5.42.904-1.606 2.189-2.991 3.856-4.154 1.666-1.163 3.67-2.063 6.012-2.7 2.342-.636 4.97-.955 7.884-.955 2.088 0 4.305.173 6.65.518 2.346.345 4.692.905 7.04 1.68 2.346.777 4.563 1.756 6.65 2.94 2.088 1.184 3.928 2.604 5.52 4.26V115.02c-4.06-1.727-8.552-3.022-13.477-3.884-4.925-.862-10.53-1.293-16.814-1.293-6.535 0-12.741.69-18.617 2.072-5.876 1.381-11.058 3.566-15.548 6.554-4.49 2.989-8.048 6.882-10.669 11.681-2.621 4.8-3.932 10.597-3.932 17.394 0 8.645 2.449 15.923 7.348 21.834 4.899 5.91 12.247 10.854 22.046 14.832 3.886 1.583 7.478 3.128 10.777 4.636 3.299 1.507 6.147 3.093 8.544 4.756 2.397 1.664 4.283 3.502 5.664 5.514 1.38 2.013 2.071 4.31 2.071 6.894 0 1.834-.408 3.523-1.225 5.069-.817 1.545-2.071 2.879-3.762 4.001-1.69 1.122-3.812 1.999-6.37 2.63-2.557.631-5.55.946-8.978.946-5.842 0-11.556-1.063-17.14-3.19-5.584-2.126-10.669-5.316-15.254-9.57zM112.505 130.552H71.025v-20.375h112.735v20.375h-41.48V234H112.505V130.552z" fill="#FFF"/>
</svg>
