<svg version="1.1" id="Layer_1" xmlns="http://www.w3.org/2000/svg" xmlns:xlink="http://www.w3.org/1999/xlink" x="0px" y="0px"
	 width="100%" viewBox="0 0 196 148" enable-background="new 0 0 196 148" xml:space="preserve">
<path fill="#FEFEFE" opacity="1.000000" stroke="none" 
	d="
M1.000001,118.000000 
	C1.000000,79.074966 1.000000,40.149925 1.000000,1.000000 
	C37.687256,1.000000 74.374969,1.000000 111.527618,1.371061 
	C109.251518,4.894875 106.875916,8.497640 103.681282,11.091778 
	C99.221130,14.713546 97.636314,18.998013 100.219521,23.385578 
	C99.224106,24.528423 98.359467,25.391193 97.165451,26.119188 
	C92.412056,26.142021 91.542587,27.471376 93.340149,31.413021 
	C93.061638,32.061077 92.909187,32.432793 92.840057,32.867455 
	C92.923386,32.930401 92.805946,32.757683 92.522850,32.838886 
	C91.764893,33.272358 91.290039,33.624622 90.376846,33.981056 
	C87.036728,33.732388 84.133232,33.295193 81.234047,33.322147 
	C80.152618,33.332203 79.081253,34.426170 77.702316,34.871162 
	C75.722435,33.160942 74.203613,31.368462 72.324944,30.115509 
	C70.380806,28.818890 68.087471,28.045843 65.966690,27.019506 
	C65.986488,26.995235 65.972282,27.056007 65.861572,26.813637 
	C65.448341,26.400055 65.145813,26.228842 64.548248,25.912796 
	C61.784775,23.283016 59.316338,20.798071 56.894279,17.879368 
	C57.383224,11.774448 53.804291,11.604440 49.327164,12.138752 
	C47.964241,12.021060 46.974442,11.917316 45.879532,11.677357 
	C45.518433,11.667613 45.262440,11.794085 44.705250,12.077991 
	C42.611126,13.160607 40.818199,14.085787 38.631836,15.006343 
	C31.598827,17.106762 26.040796,20.549776 22.929569,27.488611 
	C21.570068,28.541445 20.385008,29.341188 18.877197,29.990231 
	C14.746693,28.639034 15.525393,31.588379 14.984894,33.767860 
	C13.209658,35.340332 11.653592,36.687355 9.914499,38.081909 
	C9.639411,38.213741 9.457529,38.318493 9.471240,38.378712 
	C9.523341,38.607548 9.638671,38.821983 9.860260,39.072266 
	C9.990156,39.102730 10.220596,38.968185 10.059973,39.325401 
	C9.768919,40.452835 9.638490,41.223053 9.337944,42.348175 
	C8.954286,45.278873 8.740743,47.854671 8.527201,50.430466 
	C8.016457,50.388660 7.505713,50.346859 6.994969,50.305054 
	C6.994969,48.230164 7.269643,46.104359 6.897816,44.098392 
	C6.652424,42.774525 5.477491,41.622952 4.718752,40.394238 
	C4.178205,41.806587 3.192125,43.218212 3.189837,44.631432 
	C3.185069,47.575474 3.937194,50.518429 3.961257,53.465233 
	C4.060193,65.580757 3.942116,77.698219 4.074752,89.813103 
	C4.092617,91.444824 4.679560,93.412834 5.712832,94.615021 
	C7.507334,96.702896 8.209118,106.434822 5.822084,107.664978 
	C0.614784,110.348572 3.488727,113.701050 5.081243,116.299004 
	C7.130092,119.641388 9.125507,117.228683 10.885097,115.328918 
	C11.207100,114.981262 12.144357,115.203468 12.832845,115.461914 
	C14.017529,117.653358 15.166979,119.545502 16.523575,121.778641 
	C10.667904,125.016716 15.789154,126.740585 17.751839,129.274826 
	C16.223196,129.621323 14.623719,130.216522 13.719268,129.667236 
	C9.523479,127.119148 5.423525,125.874397 1.000000,129.000000 
	C1.000000,127.933327 1.000000,126.866661 1.376631,125.399094 
	C2.686081,124.852600 3.618901,124.707008 5.795989,124.367210 
	C3.880981,121.824821 2.440492,119.912407 1.000001,118.000000 
z"/>
<path fill="#7352AA" opacity="1.000000" stroke="none" 
	d="
M120.000000,0.999999 
	C122.700264,1.000000 125.400536,1.000000 128.550400,1.457575 
	C129.333328,15.185762 129.803329,28.455713 129.867340,41.727627 
	C129.878174,43.976368 128.138412,46.231617 127.217072,48.487782 
	C126.861839,49.357681 126.124039,50.343616 126.313950,51.083237 
	C126.485672,51.752014 127.628723,52.275482 128.440689,52.655006 
	C130.376602,53.559872 132.369934,54.341911 134.282745,55.390167 
	C134.225403,55.606777 134.010513,56.000034 133.791138,56.106941 
	C133.294525,56.409294 133.108261,56.669796 132.658630,57.033245 
	C129.257843,58.694321 126.182968,60.267101 123.177216,61.962414 
	C121.720039,62.784294 119.688324,63.798653 122.855972,65.298996 
	C120.063858,68.167351 117.419525,70.731133 114.453476,73.183441 
	C112.277672,71.426895 110.437477,69.765831 108.566788,68.139839 
	C103.475136,63.714214 98.370575,59.303429 93.066544,54.611122 
	C90.235107,51.552654 87.608261,48.769821 84.945930,45.759132 
	C84.910439,45.531281 84.819588,45.079117 85.120720,44.890060 
	C86.330147,43.770794 87.291359,42.886017 88.136559,41.901627 
	C90.425514,39.235725 93.748955,37.079212 92.805946,32.757683 
	C92.805946,32.757683 92.923386,32.930401 93.266762,32.930939 
	C97.204193,33.230034 97.449593,31.323360 96.435089,28.548342 
	C96.409927,28.493122 96.393394,28.372890 96.750839,28.511786 
	C101.263245,27.561493 102.885468,24.498085 103.459251,20.549770 
	C103.514732,20.525347 103.586403,20.427561 103.942123,20.588383 
	C108.534744,15.877263 112.771660,11.005321 117.268753,5.923213 
	C118.352623,4.142032 119.176308,2.571015 120.000000,0.999999 
z"/>
<path fill="#FCF9FC" opacity="1.000000" stroke="none" 
	d="
M162.000000,0.999999 
	C173.643204,1.000000 185.286423,1.000000 196.964813,1.000000 
	C196.964813,50.210670 196.964813,99.421379 196.964813,149.000000 
	C185.648422,149.000000 174.292862,149.000000 162.670395,148.733887 
	C167.287918,144.992081 172.172363,141.516418 177.024200,138.030594 
	C176.991562,138.020432 177.042740,138.066162 177.388977,138.016785 
	C179.828308,136.641312 181.889389,135.260986 184.022186,134.002197 
	C187.023895,132.230576 188.229889,129.760712 188.207565,126.195992 
	C188.063080,103.130455 188.087814,80.063843 188.086578,56.529869 
	C188.113342,45.603718 188.205063,35.143654 188.023880,24.688316 
	C187.989883,22.725866 186.865662,20.782310 186.144592,18.495981 
	C184.061661,17.074989 182.078659,15.988051 180.044388,14.935034 
	C179.993118,14.968954 180.090958,14.889045 180.071121,14.544350 
	C178.667618,13.094229 177.327271,11.928734 175.892319,10.894451 
	C171.280334,7.570230 166.633438,4.294456 162.000000,0.999999 
z"/>
<path fill="#FFFFFE" opacity="1.000000" stroke="none" 
	d="
M1.000000,129.469040 
	C5.423525,125.874397 9.523479,127.119148 13.719268,129.667236 
	C14.623719,130.216522 16.223196,129.621323 18.126671,129.275299 
	C19.500525,128.997589 20.250233,128.997879 21.056087,129.343201 
	C25.324551,133.932907 29.466227,138.251740 33.794704,142.374435 
	C35.003212,143.525497 36.694153,144.610718 38.285118,144.824890 
	C41.301933,145.231049 44.503983,144.515793 47.450424,145.127274 
	C51.327324,145.931839 54.529568,145.665558 57.398571,142.720963 
	C57.935459,142.169922 59.386776,141.958038 60.143597,142.263916 
	C64.572182,144.053726 65.242111,140.980789 65.967064,137.952744 
	C66.679695,134.976166 67.325096,131.983490 68.354469,128.932068 
	C68.729530,127.620392 68.963303,126.328506 68.707115,125.142441 
	C68.478661,124.084740 67.708481,123.144051 67.547913,122.107803 
	C69.511604,122.749191 71.059204,123.601570 72.716049,124.053162 
	C73.617958,124.298973 75.040375,124.204285 75.613464,123.639542 
	C76.170326,123.090782 76.198624,121.683578 75.978905,120.768646 
	C75.796326,120.008415 74.916473,119.415634 73.684364,117.976402 
	C76.286942,117.793510 78.033005,117.927620 79.638809,117.515381 
	C88.608849,115.212646 89.039803,115.534172 90.694000,124.148018 
	C90.968742,125.578659 92.817902,127.727249 94.004707,127.770882 
	C97.548286,127.901161 98.784058,129.199127 99.345520,132.698975 
	C99.691154,134.853455 101.930450,136.704147 103.319504,138.691254 
	C104.277466,140.006210 105.672783,141.255493 107.294693,142.030640 
	C110.404648,143.516953 113.643250,144.734085 117.073570,146.189484 
	C117.520164,146.617035 117.721657,146.918015 117.942566,147.515137 
	C117.974655,148.207504 117.987328,148.603760 118.000000,149.000000 
	C78.999962,149.000000 39.999920,149.000000 1.000000,149.000000 
	C1.000000,142.564087 1.000000,136.251083 1.000000,129.469040 
z"/>
<path fill="#D29AFD" opacity="1.000000" stroke="none" 
	d="
M145.000000,1.000000 
	C149.689255,1.000000 154.378510,1.000000 159.571579,1.360755 
	C160.641144,2.712118 160.971634,4.026334 161.812927,4.637897 
	C165.668884,7.440926 169.536469,10.279376 173.674057,12.620567 
	C175.573456,13.695311 176.906174,17.237371 180.090958,14.889045 
	C180.090958,14.889045 179.993118,14.968954 180.059204,15.290211 
	C182.071609,18.075300 184.017929,20.539131 185.973129,23.419247 
	C185.980896,25.223402 185.979767,26.611279 185.595184,28.085911 
	C184.535278,30.973324 183.858841,33.773979 183.337402,35.932934 
	C180.911240,34.368797 178.694580,31.823309 176.266357,31.602314 
	C170.901031,31.114010 165.430130,31.925291 160.000580,31.963800 
	C154.488495,32.002892 148.340530,33.651180 145.002533,26.534180 
	C144.691574,21.387285 144.381744,16.705524 144.006393,11.641641 
	C143.869980,10.488573 143.799103,9.717628 143.824493,8.969439 
	C143.920761,8.992193 144.117645,9.011430 144.378174,8.713263 
	C144.759140,5.943398 144.879562,3.471699 145.000000,1.000000 
M171.703903,15.567615 
	C171.989273,15.295250 172.274658,15.022885 172.560028,14.750523 
	C172.447083,14.632423 172.242188,14.405425 172.234482,14.411930 
	C171.933502,14.666126 171.650482,14.941601 171.703903,15.567615 
z"/>
<path fill="#C591F4" opacity="1.000000" stroke="none" 
	d="
M160.000000,149.000000 
	C154.977905,149.000000 149.955811,149.000000 144.465363,148.531570 
	C144.023499,141.694092 144.050003,135.325027 144.354385,128.667694 
	C144.714432,125.473366 144.796600,122.567307 144.819153,119.501633 
	C144.759567,119.342026 144.818130,119.006363 145.207275,119.037735 
	C146.185471,119.354263 146.835220,119.556610 147.354263,119.937241 
	C153.244522,124.256767 159.129395,122.677559 162.093811,116.119110 
	C162.511734,115.194496 163.812668,114.259026 164.830551,114.091309 
	C168.077820,113.556244 171.379654,113.278709 174.670792,113.127792 
	C175.673691,113.081802 177.596481,113.763809 177.597717,114.117653 
	C177.615097,119.093567 181.520218,123.824669 178.470459,129.058289 
	C177.942444,129.964401 178.793396,131.674103 178.851227,133.323547 
	C178.144302,135.111710 177.593521,136.588928 177.042740,138.066162 
	C177.042740,138.066162 176.991562,138.020432 176.630707,138.017334 
	C171.118134,140.427887 165.909805,142.733704 160.877762,145.375336 
	C160.151138,145.756775 160.271561,147.751724 160.000000,149.000000 
z"/>
<path fill="#9F74D7" opacity="1.000000" stroke="none" 
	d="
M129.000000,149.000000 
	C126.629440,149.000000 124.258888,149.000000 121.447563,148.596588 
	C119.476669,145.809723 118.325455,143.027573 116.331291,141.132401 
	C112.992729,137.959579 111.921051,132.293625 106.274551,131.633881 
	C106.333397,131.577545 106.134933,131.307617 106.004486,131.032562 
	C105.548492,130.535629 105.222954,130.313766 104.886948,130.152222 
	C104.876480,130.212524 104.754128,130.216309 104.803360,129.861923 
	C104.166344,129.078278 103.480095,128.649002 102.865936,128.131104 
	C102.938019,128.042465 102.766869,128.193863 102.847610,127.838943 
	C102.624863,126.650360 102.321365,125.816689 102.009567,124.634232 
	C100.998596,122.863831 99.995926,121.442230 99.202362,119.733475 
	C100.293785,118.153740 101.062752,116.760612 102.092957,115.599197 
	C102.975212,114.604553 104.071724,113.385262 105.232773,113.183907 
	C106.160347,113.023056 107.948120,114.038734 108.234360,114.903023 
	C108.608055,116.031418 108.146118,117.661598 107.556053,118.829491 
	C106.744484,120.435776 105.476349,121.811386 104.403816,123.285828 
	C104.905128,123.803886 105.406441,124.321953 105.907753,124.840012 
	C107.973183,123.143692 110.138184,121.552330 112.072250,119.717545 
	C113.593491,118.274391 114.804047,116.508202 116.197777,114.925270 
	C119.367485,111.325294 122.608841,107.786789 125.701469,104.122353 
	C126.139496,103.603340 126.066750,102.498566 125.960823,101.700699 
	C125.353394,97.125610 124.664574,92.561333 124.377159,88.000443 
	C126.497536,90.001175 128.244141,91.994850 130.035095,94.312653 
	C130.729935,95.085617 131.380432,95.534470 132.325684,96.005875 
	C133.081726,96.349121 133.542999,96.669815 134.002045,97.242706 
	C133.999069,97.663025 133.998306,97.831161 133.702438,98.291954 
	C132.285843,107.029289 130.559479,115.449310 130.214142,123.925606 
	C129.873505,132.287018 124.823586,140.451431 129.000000,149.000000 
z"/>
<path fill="#704FA5" opacity="1.000000" stroke="none" 
	d="
M134.340073,55.173561 
	C132.369934,54.341911 130.376602,53.559872 128.440689,52.655006 
	C127.628723,52.275482 126.485672,51.752014 126.313950,51.083237 
	C126.124039,50.343616 126.861839,49.357681 127.217072,48.487782 
	C128.138412,46.231617 129.878174,43.976368 129.867340,41.727627 
	C129.803329,28.455713 129.333328,15.185762 129.000000,1.457575 
	C131.700012,1.000000 134.400024,1.000000 137.550095,1.440125 
	C138.045197,18.398008 138.090225,34.915768 138.004883,51.702415 
	C137.204193,52.936863 136.533859,53.902416 135.604660,54.899086 
	C135.010559,55.011322 134.675323,55.092438 134.340073,55.173561 
z"/>
<path fill="#9A71D1" opacity="1.000000" stroke="none" 
	d="
M129.428467,149.000000 
	C124.823586,140.451431 129.873505,132.287018 130.214142,123.925606 
	C130.559479,115.449310 132.285843,107.029289 133.971863,98.518005 
	C135.687271,99.969398 136.838150,101.487404 137.993744,103.003044 
	C137.998489,103.000671 137.994003,103.010681 137.943954,103.415054 
	C136.929474,110.438438 135.500610,117.030708 135.117584,123.683205 
	C134.633163,132.096497 135.000198,140.558823 135.000000,149.000000 
	C133.285645,149.000000 131.571289,149.000000 129.428467,149.000000 
z"/>
<path fill="#6B4A9C" opacity="1.000000" stroke="none" 
	d="
M138.135254,51.433525 
	C138.090225,34.915768 138.045197,18.398008 138.000076,1.440125 
	C139.714355,1.000000 141.428711,1.000000 143.559265,1.444850 
	C144.022858,4.263610 144.070251,6.637520 144.117645,9.011430 
	C144.117645,9.011430 143.920761,8.992193 143.458420,9.108532 
	C142.664444,10.424397 142.048553,11.623095 142.045059,12.823577 
	C142.009491,25.027706 142.073746,37.232128 141.920441,49.699368 
	C140.532303,50.452686 139.333771,50.943108 138.135254,51.433525 
z"/>
<path fill="#956CC9" opacity="1.000000" stroke="none" 
	d="
M135.416656,149.000000 
	C135.000198,140.558823 134.633163,132.096497 135.117584,123.683205 
	C135.500610,117.030708 136.929474,110.438438 138.322266,103.419456 
	C139.363281,103.581505 140.513809,104.147064 140.510117,104.705009 
	C140.412735,119.470490 140.196198,134.235168 140.000000,149.000000 
	C138.611115,149.000000 137.222214,149.000000 135.416656,149.000000 
z"/>
<path fill="#8D64C0" opacity="1.000000" stroke="none" 
	d="
M140.399994,149.000000 
	C140.196198,134.235168 140.412735,119.470490 140.510117,104.705009 
	C140.513809,104.147064 139.363281,103.581505 138.372314,103.015091 
	C137.994003,103.010681 137.998489,103.000671 138.037369,102.632797 
	C138.409851,101.076546 138.743469,99.888153 139.373077,98.878250 
	C141.097122,99.850082 142.525146,100.643433 143.969147,101.900497 
	C144.015198,103.908852 144.045319,105.453499 144.044083,107.373581 
	C144.035110,108.501427 144.057495,109.253838 144.047119,110.390671 
	C144.245880,112.245262 144.477402,113.715416 144.715851,115.567871 
	C144.754547,116.968895 144.786346,117.987625 144.818130,119.006363 
	C144.818130,119.006363 144.759567,119.342026 144.556641,119.845650 
	C144.261307,123.218178 144.168915,126.087074 144.076508,128.955978 
	C144.050003,135.325027 144.023499,141.694092 143.998505,148.531570 
	C142.933334,149.000000 141.866653,149.000000 140.399994,149.000000 
z"/>
<path fill="#F9F4F9" opacity="1.000000" stroke="none" 
	d="
M119.555832,0.999999 
	C119.176308,2.571015 118.352623,4.142032 116.918922,5.880459 
	C112.068077,10.841101 107.827240,15.634332 103.586403,20.427563 
	C103.586403,20.427561 103.514732,20.525347 103.194962,20.622639 
	C102.033569,21.515121 101.191933,22.310312 100.350296,23.105503 
	C97.636314,18.998013 99.221130,14.713546 103.681282,11.091778 
	C106.875916,8.497640 109.251518,4.894875 111.996277,1.371061 
	C114.370560,1.000000 116.741112,1.000000 119.555832,0.999999 
z"/>
<path fill="#9C7DC0" opacity="1.000000" stroke="none" 
	d="
M106.215698,131.690231 
	C111.921051,132.293625 112.992729,137.959579 116.331291,141.132401 
	C118.325455,143.027573 119.476669,145.809723 121.003403,148.596588 
	C120.555557,149.000000 120.111107,149.000000 119.341248,148.708557 
	C118.651611,148.017746 118.287384,147.618362 117.923157,147.218994 
	C117.721657,146.918015 117.520164,146.617035 116.991547,145.867279 
	C115.916641,144.549240 115.115349,143.719986 114.430496,142.803680 
	C111.672676,139.113815 108.950829,135.397049 106.215698,131.690231 
z"/>
<path fill="#CF99FA" opacity="1.000000" stroke="none" 
	d="
M180.071121,14.544350 
	C176.906174,17.237371 175.573456,13.695311 173.674057,12.620567 
	C169.536469,10.279376 165.668884,7.440926 161.812927,4.637897 
	C160.971634,4.026334 160.641144,2.712118 160.037689,1.360755 
	C160.444443,1.000000 160.888901,1.000000 161.666672,0.999999 
	C166.633438,4.294456 171.280334,7.570230 175.892319,10.894451 
	C177.327271,11.928734 178.667618,13.094229 180.071121,14.544350 
z"/>
<path fill="#BC9ADD" opacity="1.000000" stroke="none" 
	d="
M160.333328,149.000000 
	C160.271561,147.751724 160.151138,145.756775 160.877762,145.375336 
	C165.909805,142.733704 171.118134,140.427887 176.663330,138.027496 
	C172.172363,141.516418 167.287918,144.992081 162.201736,148.733887 
	C161.555557,149.000000 161.111099,149.000000 160.333328,149.000000 
z"/>
<path fill="#FFFFFE" opacity="1.000000" stroke="none" 
	d="
M1.000001,118.437500 
	C2.440492,119.912407 3.880981,121.824821 5.795989,124.367210 
	C3.618901,124.707008 2.686081,124.852600 1.376631,124.999100 
	C1.000000,122.958336 1.000000,120.916664 1.000001,118.437500 
z"/>
<path fill="#CEA5FC" opacity="1.000000" stroke="none" 
	d="
M144.378174,8.713263 
	C144.070251,6.637520 144.022858,4.263610 143.987732,1.444850 
	C144.000000,1.000000 144.500000,1.000000 144.750000,1.000000 
	C144.879562,3.471699 144.759140,5.943398 144.378174,8.713263 
z"/>
<path fill="#F8F4FA" opacity="1.000000" stroke="none" 
	d="
M117.942566,147.515137 
	C118.287384,147.618362 118.651611,148.017746 119.007919,148.708557 
	C119.000000,149.000000 118.500000,149.000000 118.250000,149.000000 
	C117.987328,148.603760 117.974655,148.207504 117.942566,147.515137 
z"/>
<path fill="#F8F6F9" opacity="1.000000" stroke="none" 
	d="
M12.797611,115.162628 
	C12.144357,115.203468 11.207100,114.981262 10.885097,115.328918 
	C9.125507,117.228683 7.130092,119.641388 5.081243,116.299004 
	C3.488727,113.701050 0.614784,110.348572 5.822084,107.664978 
	C8.209118,106.434822 7.507334,96.702896 5.712832,94.615021 
	C4.679560,93.412834 4.092617,91.444824 4.074752,89.813103 
	C3.942116,77.698219 4.060193,65.580757 3.961257,53.465233 
	C3.937194,50.518429 3.185069,47.575474 3.189837,44.631432 
	C3.192125,43.218212 4.178205,41.806587 4.718752,40.394238 
	C5.477491,41.622952 6.652424,42.774525 6.897816,44.098392 
	C7.269643,46.104359 6.994969,48.230164 6.994969,50.305054 
	C7.505713,50.346859 8.016457,50.388660 8.527201,50.430466 
	C8.740743,47.854671 8.954286,45.278873 9.448616,42.805401 
	C9.746656,63.938805 9.735668,84.970009 9.826085,106.000778 
	C9.834854,108.040459 10.470931,110.077454 10.910294,112.409203 
	C11.663109,113.477776 12.321444,114.252846 12.934181,115.061516 
	C12.888585,115.095123 12.797611,115.162628 12.797611,115.162628 
z"/>
<path fill="#5D3E8B" opacity="1.000000" stroke="none" 
	d="
M10.097527,38.034378 
	C11.653592,36.687355 13.209658,35.340332 15.286967,33.724045 
	C16.202160,33.354221 16.596109,33.253658 17.135319,33.415970 
	C18.190805,34.079842 19.101034,34.480843 20.343655,34.989151 
	C21.928638,36.356972 23.196173,37.603031 24.431091,38.880619 
	C28.625278,43.219723 32.807941,47.569962 37.300804,52.089195 
	C38.340405,53.885059 39.074203,55.507683 39.571251,57.274925 
	C39.185825,57.949253 39.037159,58.478958 38.539444,59.077217 
	C37.034096,61.110725 35.877792,63.075680 34.721493,65.040634 
	C34.176388,64.883339 33.631283,64.726044 33.086178,64.568756 
	C33.563316,62.278183 34.040455,59.987610 34.648582,57.068195 
	C32.342201,55.209015 29.627026,53.139591 27.063730,50.896603 
	C26.005995,49.971039 24.351847,48.475510 24.544186,47.576061 
	C25.790184,41.749313 21.761993,41.589684 17.734015,40.711998 
	C15.325830,40.285339 13.186326,40.144684 10.951893,39.800064 
	C10.692262,39.338741 10.480139,39.129436 10.220596,38.968185 
	C10.220596,38.968185 9.990156,39.102730 10.010756,38.841820 
	C10.053413,38.398731 10.075470,38.216557 10.097527,38.034378 
z"/>
<path fill="#A689C9" opacity="1.000000" stroke="none" 
	d="
M84.819588,45.079117 
	C84.819588,45.079117 84.910439,45.531281 84.636261,45.783890 
	C80.590790,43.544243 76.701523,41.209671 73.088257,38.506207 
	C70.533066,36.594391 68.351608,34.183083 66.001678,31.997404 
	C66.000053,32.000050 66.004166,31.998281 65.895538,31.778139 
	C65.586624,31.283907 65.325111,31.094229 64.967987,30.649620 
	C63.957073,29.539511 62.980526,28.768744 61.873077,27.698385 
	C60.834011,26.596109 59.925850,25.793423 58.865837,24.687532 
	C57.128731,21.936934 55.543472,19.489538 54.016319,16.983946 
	C54.074429,16.925749 54.190704,16.809410 54.457298,16.961212 
	C55.431896,17.513052 56.139896,17.913090 56.847897,18.313126 
	C59.316338,20.798071 61.784775,23.283016 64.667351,26.149771 
	C65.378418,26.706390 65.675354,26.881199 65.972282,27.056007 
	C65.972282,27.056007 65.986488,26.995235 66.119278,27.315224 
	C70.768860,31.295551 75.285667,34.955894 79.837402,38.830353 
	C80.139351,39.379593 80.406372,39.714722 80.691963,40.392189 
	C81.735420,41.416016 82.760292,42.097496 83.826645,43.107140 
	C84.185280,43.983242 84.502434,44.531181 84.819588,45.079117 
z"/>
<path fill="#F8F6F9" opacity="1.000000" stroke="none" 
	d="
M20.999941,128.998169 
	C20.250233,128.997879 19.500525,128.997589 18.375984,128.996826 
	C15.789154,126.740585 10.667904,125.016716 16.523575,121.778641 
	C15.166979,119.545502 14.017529,117.653358 12.832845,115.461914 
	C12.797611,115.162628 12.888585,115.095123 13.260284,115.086609 
	C14.685266,115.767319 15.738547,116.456535 16.958853,117.430092 
	C19.128117,119.361237 21.130356,121.008041 23.117928,123.032928 
	C25.388086,124.969666 27.672911,126.528328 29.969669,128.315704 
	C29.981604,128.544434 29.996422,129.002274 29.662487,129.142670 
	C26.552347,129.188095 23.776144,129.093140 20.999941,128.998169 
z"/>
<path fill="#43346B" opacity="1.000000" stroke="none" 
	d="
M10.059973,39.325401 
	C10.480139,39.129436 10.692262,39.338741 10.940562,40.268219 
	C11.038166,60.957829 11.052173,80.975319 11.048735,101.436821 
	C10.959464,105.292458 10.887639,108.704071 10.815814,112.115692 
	C10.470931,110.077454 9.834854,108.040459 9.826085,106.000778 
	C9.735668,84.970009 9.746656,63.938805 9.618731,42.450497 
	C9.638490,41.223053 9.768919,40.452835 10.059973,39.325401 
z"/>
<path fill="#F7F1F7" opacity="1.000000" stroke="none" 
	d="
M80.673386,40.049847 
	C80.406372,39.714722 80.139351,39.379593 79.823112,38.479668 
	C79.184364,36.951874 78.594833,35.988884 78.005302,35.025894 
	C79.081253,34.426170 80.152618,33.332203 81.234047,33.322147 
	C84.133232,33.295193 87.036728,33.732388 90.278824,34.292076 
	C88.411942,37.059902 86.204758,39.520878 83.841125,41.679031 
	C82.680916,40.934090 81.677147,40.491970 80.673386,40.049847 
z"/>
<path fill="#F6EDFB" opacity="1.000000" stroke="none" 
	d="
M23.104010,27.235523 
	C26.040796,20.549776 31.598827,17.106762 38.522789,15.263179 
	C38.502178,15.986530 38.197182,16.448421 37.906456,16.926350 
	C37.920727,16.942387 37.941151,16.917809 37.648720,17.053883 
	C35.881275,18.405062 34.406254,19.620167 32.631096,20.974903 
	C30.858400,22.381620 29.385843,23.648710 27.902271,24.890741 
	C27.891253,24.865685 27.846001,24.834877 27.518570,24.910048 
	C25.828764,25.735319 24.466387,26.485420 23.104010,27.235523 
z"/>
<path fill="#F7ECFB" opacity="1.000000" stroke="none" 
	d="
M77.702316,34.871162 
	C78.594833,35.988884 79.184364,36.951874 79.788177,38.265549 
	C75.285667,34.955894 70.768860,31.295551 66.099472,27.339493 
	C68.087471,28.045843 70.380806,28.818890 72.324944,30.115509 
	C74.203613,31.368462 75.722435,33.160942 77.702316,34.871162 
z"/>
<path fill="#A689C9" opacity="1.000000" stroke="none" 
	d="
M37.892185,16.910315 
	C38.197182,16.448421 38.502178,15.986530 38.916225,15.267802 
	C40.818199,14.085787 42.611126,13.160607 44.953949,12.089758 
	C45.503853,11.944089 45.984638,11.813573 45.984638,11.813573 
	C46.974442,11.917316 47.964241,12.021060 49.539028,12.391235 
	C51.479576,14.041581 52.835136,15.425497 54.190704,16.809410 
	C54.190704,16.809410 54.074429,16.925749 53.632153,16.976627 
	C48.594460,14.561309 44.003998,13.894601 39.360928,16.955019 
	C39.026474,17.175468 38.388851,16.935963 37.892185,16.910315 
z"/>
<path fill="#745F96" opacity="1.000000" stroke="none" 
	d="
M83.997574,41.981850 
	C86.204758,39.520878 88.411942,37.059902 90.717148,34.287907 
	C91.290039,33.624622 91.764893,33.272358 92.522850,32.838886 
	C93.748955,37.079212 90.425514,39.235725 88.136559,41.901627 
	C87.291359,42.886017 86.330147,43.770794 85.120720,44.890064 
	C84.502434,44.531181 84.185280,43.983242 83.906532,42.915081 
	C83.944939,42.394859 83.997574,41.981853 83.997574,41.981850 
z"/>
<path fill="#A88AC9" opacity="1.000000" stroke="none" 
	d="
M22.929569,27.488613 
	C24.466387,26.485420 25.828764,25.735319 27.543550,25.273323 
	C26.686695,26.790051 25.389208,27.945187 24.289642,29.265186 
	C22.784739,31.071785 21.430231,33.003658 20.011263,34.881840 
	C19.101034,34.480843 18.190805,34.079842 17.176836,33.095268 
	C17.782045,31.721443 18.490995,30.931187 19.199947,30.140930 
	C20.385008,29.341188 21.570068,28.541445 22.929569,27.488613 
z"/>
<path fill="#F7ECFB" opacity="1.000000" stroke="none" 
	d="
M54.457298,16.961214 
	C52.835136,15.425497 51.479576,14.041581 49.912148,12.405183 
	C53.804291,11.604440 57.383224,11.774448 56.894279,17.879368 
	C56.139896,17.913090 55.431896,17.513052 54.457298,16.961214 
z"/>
<path fill="#745F96" opacity="1.000000" stroke="none" 
	d="
M100.219521,23.385580 
	C101.191933,22.310312 102.033569,21.515121 103.139481,20.647062 
	C102.885468,24.498085 101.263245,27.561493 96.886665,28.245937 
	C96.941635,27.312117 97.218231,26.783037 97.494827,26.253960 
	C98.359467,25.391193 99.224106,24.528423 100.219521,23.385580 
z"/>
<path fill="#F7F1F7" opacity="1.000000" stroke="none" 
	d="
M97.165451,26.119186 
	C97.218231,26.783037 96.941635,27.312117 96.529221,28.107042 
	C96.393394,28.372890 96.409927,28.493122 96.172073,28.619186 
	C95.111549,29.542395 94.288879,30.339539 93.466209,31.136681 
	C91.542587,27.471376 92.412056,26.142021 97.165451,26.119186 
z"/>
<path fill="#745F96" opacity="1.000000" stroke="none" 
	d="
M93.340149,31.413021 
	C94.288879,30.339539 95.111549,29.542395 96.197227,28.674406 
	C97.449593,31.323360 97.204193,33.230034 93.183434,32.867992 
	C92.909187,32.432793 93.061638,32.061077 93.340149,31.413021 
z"/>
<path fill="#F6EDFB" opacity="1.000000" stroke="none" 
	d="
M18.877195,29.990231 
	C18.490995,30.931187 17.782045,31.721443 17.031578,32.832397 
	C16.596109,33.253658 16.202160,33.354221 15.506138,33.498596 
	C15.525393,31.588379 14.746693,28.639034 18.877195,29.990231 
z"/>
<path fill="#F8F6F9" opacity="1.000000" stroke="none" 
	d="
M9.914500,38.081909 
	C10.075470,38.216557 10.053413,38.398731 9.880860,38.811356 
	C9.638671,38.821983 9.523341,38.607548 9.471240,38.378712 
	C9.457529,38.318493 9.639411,38.213741 9.914500,38.081909 
z"/>
<path fill="#F7ECFB" opacity="1.000000" stroke="none" 
	d="
M65.861572,26.813637 
	C65.675354,26.881199 65.378418,26.706390 64.962387,26.294605 
	C65.145813,26.228842 65.448341,26.400055 65.861572,26.813637 
z"/>
<path fill="#F7ECFB" opacity="1.000000" stroke="none" 
	d="
M45.879532,11.677357 
	C45.984638,11.813573 45.503853,11.944089 45.255150,11.932323 
	C45.262440,11.794085 45.518433,11.667613 45.879532,11.677357 
z"/>
<path fill="#A377DB" opacity="1.000000" stroke="none" 
	d="
M124.003380,87.993385 
	C124.664574,92.561333 125.353394,97.125610 125.960823,101.700699 
	C126.066750,102.498566 126.139496,103.603340 125.701469,104.122353 
	C122.608841,107.786789 119.367485,111.325294 116.197777,114.925270 
	C114.804047,116.508202 113.593491,118.274391 112.072250,119.717545 
	C110.138184,121.552330 107.973183,123.143692 105.907753,124.840012 
	C105.406441,124.321953 104.905128,123.803886 104.403816,123.285828 
	C105.476349,121.811386 106.744484,120.435776 107.556053,118.829491 
	C108.146118,117.661598 108.608055,116.031418 108.234360,114.903023 
	C107.948120,114.038734 106.160347,113.023056 105.232773,113.183907 
	C104.071724,113.385262 102.975212,114.604553 102.092957,115.599197 
	C101.062752,116.760612 100.293785,118.153740 98.844086,119.666000 
	C96.467796,118.964920 94.658882,118.044174 92.857742,117.070526 
	C92.865509,117.017632 92.886230,117.122360 92.926392,116.726234 
	C91.963036,110.496292 88.736176,106.634361 82.645630,105.018974 
	C81.932266,104.944229 81.526283,104.890121 81.051537,104.503120 
	C77.253761,99.249443 73.524757,94.328651 69.849831,88.996826 
	C70.703285,86.877960 71.105270,84.397514 72.432053,83.715088 
	C73.432098,83.200714 75.603401,85.019806 77.277916,85.743423 
	C78.725182,86.368851 80.207031,86.914253 81.673592,87.495033 
	C82.087532,85.817970 82.848999,84.138168 82.835861,82.464462 
	C82.814926,79.798233 82.278130,77.136063 81.968254,74.545479 
	C89.367706,73.177841 89.974739,72.465378 89.997520,65.945442 
	C90.005661,63.615936 90.350357,61.211338 89.890465,58.974880 
	C89.249298,55.856869 90.909874,55.221088 93.271133,54.886761 
	C98.370575,59.303429 103.475136,63.714214 108.566788,68.139839 
	C110.437477,69.765831 112.277672,71.426895 114.492294,73.468529 
	C114.872627,74.252571 114.892433,74.640045 114.579422,75.082100 
	C114.155663,76.897049 114.064720,78.657417 113.973785,80.417786 
	C114.428154,80.160774 114.882523,79.903770 115.336884,79.646767 
	C117.212479,81.348724 119.116341,83.020897 120.952881,84.764008 
	C122.025314,85.781876 122.990143,86.913132 124.003380,87.993385 
z"/>
<path fill="#A87ADF" opacity="1.000000" stroke="none" 
	d="
M93.066544,54.611122 
	C90.909874,55.221088 89.249298,55.856869 89.890465,58.974880 
	C90.350357,61.211338 90.005661,63.615936 89.997520,65.945442 
	C89.974739,72.465378 89.367706,73.177841 81.968254,74.545479 
	C82.278130,77.136063 82.814926,79.798233 82.835861,82.464462 
	C82.848999,84.138168 82.087532,85.817970 81.673592,87.495033 
	C80.207031,86.914253 78.725182,86.368851 77.277916,85.743423 
	C75.603401,85.019806 73.432098,83.200714 72.432053,83.715088 
	C71.105270,84.397514 70.703285,86.877960 69.543526,88.846474 
	C65.518913,85.579041 61.854687,82.050934 58.087326,78.241669 
	C57.264519,77.238899 56.544846,76.517273 55.863419,75.450668 
	C50.677994,69.106514 45.454327,63.107323 40.128529,57.181076 
	C40.026402,57.254017 39.808006,57.130302 39.808006,57.130302 
	C39.074203,55.507683 38.340405,53.885059 37.304184,51.778801 
	C37.656891,51.023159 38.657505,50.331959 38.914143,50.543468 
	C41.731026,52.865047 44.431953,55.327332 47.699509,58.226192 
	C47.699509,56.807106 47.902336,56.100067 47.669670,55.592770 
	C42.625881,44.595669 46.179005,38.983929 58.305103,39.030724 
	C61.662930,39.043682 65.019318,39.429485 67.635292,39.596821 
	C67.055450,36.895828 66.529373,34.445293 66.003304,31.994759 
	C68.351608,34.183083 70.533066,36.594391 73.088257,38.506207 
	C76.701523,41.209671 80.590790,43.544243 84.671753,46.011742 
	C87.608261,48.769821 90.235107,51.552654 93.066544,54.611122 
z"/>
<path fill="#745F96" opacity="1.000000" stroke="none" 
	d="
M103.942123,20.588385 
	C107.827240,15.634332 112.068077,10.841101 116.658737,6.090623 
	C112.771660,11.005321 108.534744,15.877263 103.942123,20.588385 
z"/>
<path fill="#776299" opacity="1.000000" stroke="none" 
	d="
M114.912247,75.027519 
	C114.892433,74.640045 114.872627,74.252571 114.813995,73.580002 
	C117.419525,70.731133 120.063858,68.167351 123.140137,65.179787 
	C125.067810,64.180481 126.563538,63.604942 127.913727,63.329956 
	C123.860588,67.405960 119.952995,71.181419 115.763130,74.990906 
	C115.291313,75.025803 115.101776,75.026657 114.912247,75.027519 
z"/>
<path fill="#715898" opacity="1.000000" stroke="none" 
	d="
M128.059265,63.029404 
	C126.563538,63.604942 125.067810,64.180481 123.287918,64.875214 
	C119.688324,63.798653 121.720039,62.784294 123.177216,61.962414 
	C126.182968,60.267101 129.257843,58.694321 132.685211,57.066658 
	C133.066132,57.062183 133.124725,57.124912 133.097595,57.435173 
	C133.033585,58.159042 132.996689,58.572659 132.670593,59.124317 
	C130.940704,60.518044 129.499985,61.773724 128.059265,63.029404 
z"/>
<path fill="#F3E5F8" opacity="1.000000" stroke="none" 
	d="
M134.282745,55.390167 
	C134.675323,55.092438 135.010559,55.011322 135.681549,54.974701 
	C136.017303,55.019196 136.169205,55.170540 136.089783,55.448429 
	C135.456818,56.169888 134.903259,56.613461 134.260651,56.794147 
	C134.117920,56.354191 134.064224,56.177113 134.010513,56.000034 
	C134.010513,56.000034 134.225403,55.606777 134.282745,55.390167 
z"/>
<path fill="#715898" opacity="1.000000" stroke="none" 
	d="
M133.791138,56.106941 
	C134.064224,56.177113 134.117920,56.354191 134.149170,56.787254 
	C134.126724,57.043243 134.093216,57.261631 133.856766,57.187313 
	C133.620316,57.112995 133.124725,57.124912 133.124725,57.124912 
	C133.124725,57.124912 133.066132,57.062183 133.039551,57.028770 
	C133.108261,56.669796 133.294525,56.409294 133.791138,56.106941 
z"/>
<path fill="#BC9ADD" opacity="1.000000" stroke="none" 
	d="
M177.388977,138.016785 
	C177.593521,136.588928 178.144302,135.111710 179.188568,133.319962 
	C180.455887,132.672256 181.229691,132.339066 182.303406,131.874176 
	C183.402008,130.828094 184.200699,129.913742 185.056244,128.585678 
	C185.408524,123.114540 185.703949,118.057121 186.271851,112.768036 
	C186.685822,111.355873 186.827316,110.175362 186.975784,108.526581 
	C186.990723,91.040054 186.998718,74.021812 187.269302,57.002258 
	C187.706955,56.999821 187.882004,56.998707 188.057068,56.997589 
	C188.087814,80.063843 188.063080,103.130455 188.207565,126.195992 
	C188.229889,129.760712 187.023895,132.230576 184.022186,134.002197 
	C181.889389,135.260986 179.828308,136.641312 177.388977,138.016785 
z"/>
<path fill="#C29DE0" opacity="1.000000" stroke="none" 
	d="
M188.086563,56.529869 
	C187.882004,56.998707 187.706955,56.999821 187.261902,56.750435 
	C186.985046,56.332150 186.978195,56.164364 186.977768,55.528206 
	C186.649002,46.039608 186.313828,37.019379 185.978668,27.999153 
	C185.979767,26.611279 185.980896,25.223402 185.983261,23.091637 
	C186.071182,21.175177 186.157852,20.002605 186.244522,18.830034 
	C186.865662,20.782310 187.989883,22.725866 188.023880,24.688316 
	C188.205063,35.143654 188.113342,45.603718 188.086563,56.529869 
z"/>
<path fill="#CF99FA" opacity="1.000000" stroke="none" 
	d="
M186.144592,18.495981 
	C186.157852,20.002605 186.071182,21.175177 185.974380,22.675356 
	C184.017929,20.539131 182.071609,18.075300 180.110474,15.256290 
	C182.078659,15.988051 184.061661,17.074989 186.144592,18.495981 
z"/>
<path fill="#FEFEFE" opacity="1.000000" stroke="none" 
	d="
M21.056087,129.343201 
	C23.776144,129.093140 26.552347,129.188095 29.825378,129.452957 
	C32.998451,131.836746 34.594505,135.976410 39.256271,134.663315 
	C39.249275,134.688660 39.244423,134.739044 39.192299,135.108871 
	C40.636032,137.526978 42.131882,139.575256 43.577293,141.554474 
	C45.484333,141.360321 47.241135,141.181458 49.052704,141.140869 
	C49.193443,141.328354 49.279423,141.377548 49.365406,141.426743 
	C49.244495,141.283798 49.123585,141.140869 49.001667,140.624481 
	C49.000313,139.504196 48.999962,138.757355 49.231804,137.784729 
	C50.569969,136.899277 51.675949,136.239594 53.015919,135.920776 
	C55.213593,136.221085 57.177277,136.180511 59.140961,136.139954 
	C58.713165,134.315826 58.285370,132.491714 57.939606,130.483658 
	C58.183323,130.068741 58.401440,129.921173 59.113106,129.896881 
	C62.366825,129.623779 65.183411,129.310837 68.000000,128.997879 
	C67.325096,131.983490 66.679695,134.976166 65.967064,137.952744 
	C65.242111,140.980789 64.572182,144.053726 60.143597,142.263916 
	C59.386776,141.958038 57.935459,142.169922 57.398571,142.720963 
	C54.529568,145.665558 51.327324,145.931839 47.450424,145.127274 
	C44.503983,144.515793 41.301933,145.231049 38.285118,144.824890 
	C36.694153,144.610718 35.003212,143.525497 33.794704,142.374435 
	C29.466227,138.251740 25.324551,133.932907 21.056087,129.343201 
M63.295635,134.432510 
	C63.010426,134.704727 62.725216,134.976959 62.440006,135.249176 
	C62.552883,135.367172 62.757660,135.593979 62.765385,135.587463 
	C63.066143,135.333450 63.348938,135.058182 63.295635,134.432510 
M52.796860,139.390030 
	C52.792664,139.785294 52.788464,140.180542 52.784264,140.575806 
	C52.948280,140.577332 53.254852,140.589844 53.255703,140.578781 
	C53.286030,140.185425 53.287724,139.789886 52.796860,139.390030 
z"/>
<path fill="#F8F4FA" opacity="1.000000" stroke="none" 
	d="
M106.274551,131.633881 
	C108.950829,135.397049 111.672676,139.113815 114.430496,142.803680 
	C115.115349,143.719986 115.916641,144.549240 116.746445,145.740723 
	C113.643250,144.734085 110.404648,143.516953 107.294693,142.030640 
	C105.672783,141.255493 104.277466,140.006210 103.319504,138.691254 
	C101.930450,136.704147 99.691154,134.853455 99.345520,132.698975 
	C98.784058,129.199127 97.548286,127.901161 94.004707,127.770882 
	C92.817902,127.727249 90.968742,125.578659 90.694000,124.148018 
	C89.039803,115.534172 88.608849,115.212646 79.638809,117.515381 
	C78.033005,117.927620 76.286942,117.793510 73.684364,117.976402 
	C74.916473,119.415634 75.796326,120.008415 75.978905,120.768646 
	C76.198624,121.683578 76.170326,123.090782 75.613464,123.639542 
	C75.040375,124.204285 73.617958,124.298973 72.716049,124.053162 
	C71.059204,123.601570 69.511604,122.749191 67.499832,122.068512 
	C67.081200,122.073143 66.992050,121.990295 67.119476,121.680099 
	C72.429108,116.384666 77.611320,111.399437 83.073761,106.667770 
	C86.531410,110.321678 89.708824,113.722015 92.886230,117.122360 
	C92.886230,117.122360 92.865509,117.017632 92.930573,117.394882 
	C94.682068,119.845093 96.368500,121.918060 98.154739,124.304047 
	C99.758659,125.809334 101.262764,127.001602 102.766869,128.193863 
	C102.766869,128.193863 102.938019,128.042465 102.887299,128.446350 
	C103.475769,129.305603 104.114944,129.760956 104.754128,130.216309 
	C104.754128,130.216309 104.876480,130.212524 104.910500,130.501740 
	C105.341324,130.963181 105.738129,131.135406 106.134933,131.307617 
	C106.134933,131.307617 106.333397,131.577545 106.274551,131.633881 
z"/>
<path fill="#F8F4FA" opacity="1.000000" stroke="none" 
	d="
M68.354469,128.932068 
	C65.183411,129.310837 62.366825,129.623779 59.260307,129.597961 
	C60.094601,127.965584 61.218826,126.671989 62.198887,125.284157 
	C62.054722,125.189919 62.364151,125.341263 62.643158,125.247444 
	C63.531559,124.434731 64.140953,123.715836 64.944214,122.735977 
	C65.756073,122.313438 66.374062,122.151871 66.992050,121.990295 
	C66.992050,121.990295 67.081200,122.073143 67.129280,122.112434 
	C67.708481,123.144051 68.478661,124.084740 68.707115,125.142441 
	C68.963303,126.328506 68.729530,127.620392 68.354469,128.932068 
z"/>
<path fill="#CF99FA" opacity="1.000000" stroke="none" 
	d="
M185.595184,28.085911 
	C186.313828,37.019379 186.649002,46.039608 186.604919,55.571678 
	C182.929245,56.837658 181.547119,58.883904 181.989090,62.237358 
	C182.348419,64.963608 181.210251,66.011414 178.360703,66.066315 
	C171.939178,66.190056 165.527023,66.788704 159.105347,66.924126 
	C157.222046,66.963852 155.285934,66.202461 153.434662,65.616623 
	C151.236740,64.921097 149.104279,64.018753 145.999588,62.851036 
	C145.999588,61.155910 146.187775,58.021309 145.912338,54.927998 
	C145.792343,53.580330 144.721146,52.317360 144.056702,50.631191 
	C143.999008,49.733696 143.966522,49.220936 143.913086,48.281792 
	C143.958847,45.562950 144.025558,43.270481 144.243408,40.889351 
	C144.291519,40.539944 144.188492,40.279198 144.018341,39.590107 
	C143.995514,37.430809 144.039810,35.699852 144.354263,33.691067 
	C144.750839,31.275263 144.877258,29.137289 145.003662,26.999313 
	C148.340530,33.651180 154.488495,32.002892 160.000580,31.963800 
	C165.430130,31.925291 170.901031,31.114010 176.266357,31.602314 
	C178.694580,31.823309 180.911240,34.368797 183.337402,35.932934 
	C183.858841,33.773979 184.535278,30.973324 185.595184,28.085911 
z"/>
<path fill="#614091" opacity="1.000000" stroke="none" 
	d="
M144.084106,33.968895 
	C144.039810,35.699852 143.995514,37.430809 143.974365,39.830307 
	C143.997498,40.498852 144.092255,40.978016 144.092255,40.978016 
	C144.025558,43.270481 143.958847,45.562950 143.603973,48.389084 
	C142.913910,49.093987 142.511978,49.265224 142.110046,49.436462 
	C142.073746,37.232128 142.009491,25.027706 142.045059,12.823577 
	C142.048553,11.623095 142.664444,10.424397 143.362152,9.085777 
	C143.799103,9.717628 143.869980,10.488573 143.942001,12.104431 
	C143.990128,19.955860 144.037109,26.962378 144.084106,33.968895 
z"/>
<path fill="#CEA5FC" opacity="1.000000" stroke="none" 
	d="
M144.354263,33.691067 
	C144.037109,26.962378 143.990128,19.955860 144.007538,12.486553 
	C144.381744,16.705524 144.691574,21.387285 145.002533,26.534180 
	C144.877258,29.137289 144.750839,31.275263 144.354263,33.691067 
z"/>
<path fill="#CF99FA" opacity="1.000000" stroke="none" 
	d="
M171.534515,15.390951 
	C171.650482,14.941601 171.933502,14.666126 172.234482,14.411930 
	C172.242188,14.405425 172.447083,14.632423 172.560028,14.750523 
	C172.274658,15.022885 171.989273,15.295250 171.534515,15.390951 
z"/>
<path fill="#C890F8" opacity="1.000000" stroke="none" 
	d="
M185.999390,112.999695 
	C185.703949,118.057121 185.408524,123.114540 184.684555,128.593231 
	C183.505188,130.011612 182.754349,131.008743 182.003494,132.005890 
	C181.229691,132.339066 180.455887,132.672256 179.344727,133.009033 
	C178.793396,131.674103 177.942444,129.964401 178.470459,129.058289 
	C181.520218,123.824669 177.615097,119.093567 177.597717,114.117653 
	C177.596481,113.763809 175.673691,113.081802 174.670792,113.127792 
	C171.379654,113.278709 168.077820,113.556244 164.830551,114.091309 
	C163.812668,114.259026 162.511734,115.194496 162.093811,116.119110 
	C159.129395,122.677559 153.244522,124.256767 147.354263,119.937241 
	C146.835220,119.556610 146.185471,119.354263 145.207275,119.037735 
	C144.786346,117.987625 144.754547,116.968895 145.032120,115.335236 
	C144.920944,113.148956 144.500412,111.577599 144.079880,110.006248 
	C144.057495,109.253838 144.035110,108.501427 144.415741,107.368439 
	C147.551544,106.050667 150.240692,104.524841 153.027634,104.318291 
	C156.922379,104.029640 160.888931,104.926498 164.826889,104.949516 
	C169.840179,104.978844 175.877777,106.888245 177.042908,97.867958 
	C179.056305,102.796280 180.527847,106.398293 182.047806,110.337524 
	C183.397263,111.449730 184.698334,112.224716 185.999390,112.999695 
z"/>
<path fill="#C994F6" opacity="1.000000" stroke="none" 
	d="
M144.354385,128.667694 
	C144.168915,126.087074 144.261307,123.218178 144.616226,120.005264 
	C144.796600,122.567307 144.714432,125.473366 144.354385,128.667694 
z"/>
<path fill="#A082C7" opacity="1.000000" stroke="none" 
	d="
M114.579422,75.082100 
	C115.101776,75.026657 115.291313,75.025803 115.930504,75.280670 
	C120.701019,79.614655 124.755219,84.040657 129.445389,87.637329 
	C132.146469,89.708649 135.224335,90.978912 135.336060,95.171463 
	C135.528122,95.637985 135.738419,95.832489 135.839447,96.219543 
	C135.119003,96.643700 134.561630,96.817108 134.004272,96.990517 
	C133.542999,96.669815 133.081726,96.349121 132.315948,95.678848 
	C131.337860,94.882355 130.664307,94.435448 129.990738,93.988533 
	C128.244141,91.994850 126.497536,90.001175 124.377159,88.000443 
	C122.990143,86.913132 122.025314,85.781876 120.952881,84.764008 
	C119.116341,83.020897 117.212479,81.348724 115.336884,79.646767 
	C114.882523,79.903770 114.428154,80.160774 113.973785,80.417786 
	C114.064720,78.657417 114.155663,76.897049 114.579422,75.082100 
z"/>
<path fill="#A085C4" opacity="1.000000" stroke="none" 
	d="
M98.054932,123.991020 
	C96.368500,121.918060 94.682068,119.845093 92.922806,117.447769 
	C94.658882,118.044174 96.467796,118.964920 98.634979,119.953156 
	C99.995926,121.442230 100.998596,122.863831 101.743637,124.521820 
	C100.342308,124.502472 99.198624,124.246750 98.054932,123.991020 
z"/>
<path fill="#956CC9" opacity="1.000000" stroke="none" 
	d="
M134.002045,97.242706 
	C134.561630,96.817108 135.119003,96.643700 136.140167,96.281502 
	C137.428345,96.961731 138.252701,97.830750 139.077072,98.699768 
	C138.743469,99.888153 138.409851,101.076546 138.032623,102.635178 
	C136.838150,101.487404 135.687271,99.969398 134.266968,98.225342 
	C133.998306,97.831161 133.999069,97.663025 134.002045,97.242706 
z"/>
<path fill="#9D81BC" opacity="1.000000" stroke="none" 
	d="
M98.154739,124.304047 
	C99.198624,124.246750 100.342308,124.502472 101.751930,124.870613 
	C102.321365,125.816689 102.624863,126.650360 102.847610,127.838943 
	C101.262764,127.001602 99.758659,125.809334 98.154739,124.304047 
z"/>
<path fill="#9A71D1" opacity="1.000000" stroke="none" 
	d="
M130.035095,94.312653 
	C130.664307,94.435448 131.337860,94.882355 132.021179,95.656296 
	C131.380432,95.534470 130.729935,95.085617 130.035095,94.312653 
z"/>
<path fill="#9D81BC" opacity="1.000000" stroke="none" 
	d="
M104.803360,129.861923 
	C104.114944,129.760956 103.475769,129.305603 102.815216,128.535004 
	C103.480095,128.649002 104.166344,129.078278 104.803360,129.861923 
z"/>
<path fill="#9D81BC" opacity="1.000000" stroke="none" 
	d="
M106.004486,131.032562 
	C105.738129,131.135406 105.341324,130.963181 104.920967,130.441437 
	C105.222954,130.313766 105.548492,130.535629 106.004486,131.032562 
z"/>
<path fill="#F3E5F8" opacity="1.000000" stroke="none" 
	d="
M141.920441,49.699364 
	C142.511978,49.265224 142.913910,49.093987 143.624939,48.815460 
	C143.966522,49.220936 143.999008,49.733696 144.028687,51.008526 
	C143.973068,52.525372 143.920273,53.280151 143.467804,54.021885 
	C140.768478,54.396072 138.468842,54.783306 136.169205,55.170540 
	C136.169205,55.170540 136.017303,55.019196 135.940399,54.943584 
	C136.533859,53.902416 137.204193,52.936863 138.004883,51.702415 
	C139.333771,50.943108 140.532303,50.452686 141.920441,49.699364 
z"/>
<path fill="#C994F6" opacity="1.000000" stroke="none" 
	d="
M143.867477,54.034931 
	C143.920273,53.280151 143.973068,52.525372 144.053894,51.393257 
	C144.721146,52.317360 145.792343,53.580330 145.912338,54.927998 
	C146.187775,58.021309 145.999588,61.155910 145.999588,62.851036 
	C149.104279,64.018753 151.236740,64.921097 153.434662,65.616623 
	C155.285934,66.202461 157.222046,66.963852 159.105347,66.924126 
	C165.527023,66.788704 171.939178,66.190056 178.360703,66.066315 
	C181.210251,66.011414 182.348419,64.963608 181.989090,62.237358 
	C181.547119,58.883904 182.929245,56.837658 186.598511,56.040054 
	C186.978195,56.164364 186.985046,56.332150 186.999313,56.751755 
	C186.998718,74.021812 186.990723,91.040054 186.610138,108.532883 
	C184.824814,109.338402 183.412109,109.669350 181.999390,110.000305 
	C180.527847,106.398293 179.056305,102.796280 177.042908,97.867958 
	C175.877777,106.888245 169.840179,104.978844 164.826889,104.949516 
	C160.888931,104.926498 156.922379,104.029640 153.027634,104.318291 
	C150.240692,104.524841 147.551544,106.050667 144.447098,106.993011 
	C144.045319,105.453499 144.015198,103.908852 143.946976,101.653946 
	C143.967422,100.608322 144.025970,100.272949 144.368256,99.644585 
	C144.771622,89.638229 144.938812,79.925003 144.966324,70.211380 
	C144.971191,68.494308 144.393219,66.775589 144.041870,64.597977 
	C143.955383,60.770523 143.911423,57.402729 143.867477,54.034931 
z"/>
<path fill="#F3E5F8" opacity="1.000000" stroke="none" 
	d="
M144.084518,99.937584 
	C144.025970,100.272949 143.967422,100.608322 143.931030,101.190239 
	C142.525146,100.643433 141.097122,99.850082 139.373077,98.878250 
	C138.252701,97.830750 137.428345,96.961731 136.303253,96.030754 
	C135.738419,95.832489 135.528122,95.637985 135.720688,95.176697 
	C138.656357,95.299904 141.242996,95.631706 143.890930,96.358902 
	C143.996323,97.815392 144.040421,98.876488 144.084518,99.937584 
z"/>
<path fill="#C994F6" opacity="1.000000" stroke="none" 
	d="
M144.047119,110.390671 
	C144.500412,111.577599 144.920944,113.148956 145.025208,114.952942 
	C144.477402,113.715416 144.245880,112.245262 144.047119,110.390671 
z"/>
<path fill="#5F438E" opacity="1.000000" stroke="none" 
	d="
M10.910294,112.409203 
	C10.887639,108.704071 10.959464,105.292458 11.466599,101.438904 
	C15.775194,101.540039 16.333460,99.433563 15.901222,96.237610 
	C15.461627,92.987251 15.072518,89.702850 15.040318,86.429626 
	C14.934449,75.667816 15.004965,64.904312 14.994735,54.141476 
	C14.993478,52.820168 15.396980,51.193417 14.787869,50.229652 
	C11.890840,45.645840 15.104465,43.425194 18.002695,40.998001 
	C21.761993,41.589684 25.790184,41.749313 24.544186,47.576061 
	C24.351847,48.475510 26.005995,49.971039 27.063730,50.896603 
	C29.627026,53.139591 32.342201,55.209015 34.648582,57.068195 
	C34.040455,59.987610 33.563316,62.278183 33.086178,64.568756 
	C33.631283,64.726044 34.176388,64.883339 34.721493,65.040634 
	C35.877792,63.075680 37.034096,61.110725 38.577049,59.543915 
	C38.985107,70.709717 39.006516,81.477379 39.061199,92.529411 
	C39.115284,93.201828 39.136093,93.589882 38.826500,94.125015 
	C32.992920,100.858833 27.489744,107.445572 21.668396,114.168533 
	C19.830757,115.251762 18.311293,116.198761 16.791828,117.145760 
	C15.738547,116.456535 14.685266,115.767319 13.305881,115.053001 
	C12.321444,114.252846 11.663109,113.477776 10.910294,112.409203 
z"/>
<path fill="#AC7DE2" opacity="1.000000" stroke="none" 
	d="
M66.001678,31.997404 
	C66.529373,34.445293 67.055450,36.895828 67.635292,39.596821 
	C65.019318,39.429485 61.662930,39.043682 58.305103,39.030724 
	C46.179005,38.983929 42.625881,44.595669 47.669670,55.592770 
	C47.902336,56.100067 47.699509,56.807106 47.699509,58.226192 
	C44.431953,55.327332 41.731026,52.865047 38.914143,50.543468 
	C38.657505,50.331959 37.656891,51.023159 36.998383,51.605556 
	C32.807941,47.569962 28.625278,43.219723 24.431091,38.880619 
	C23.196173,37.603031 21.928638,36.356972 20.343655,34.989151 
	C21.430231,33.003658 22.784739,31.071785 24.289642,29.265186 
	C25.389208,27.945187 26.686695,26.790051 27.870979,25.198153 
	C27.846001,24.834877 27.891253,24.865685 28.274860,24.918995 
	C30.116158,23.998917 31.573847,23.025526 33.404255,21.998764 
	C36.362652,21.261480 38.762592,20.423723 37.941151,16.917809 
	C37.941151,16.917809 37.920727,16.942387 37.906456,16.926350 
	C38.388851,16.935963 39.026474,17.175468 39.360928,16.955019 
	C44.003998,13.894601 48.594460,14.561309 53.574043,17.034824 
	C55.543472,19.489538 57.128731,21.936934 58.581932,24.897671 
	C57.936096,26.654749 57.422321,27.898481 56.908543,29.142216 
	C57.258472,29.500599 57.608406,29.858982 57.958336,30.217363 
	C59.306885,29.477568 60.655434,28.737770 62.003983,27.997974 
	C62.980526,28.768744 63.957073,29.539511 65.073982,30.872070 
	C65.413681,31.711468 65.676956,31.899607 66.004166,31.998281 
	C66.004166,31.998281 66.000053,32.000050 66.001678,31.997404 
z"/>
<path fill="#5C4593" opacity="1.000000" stroke="none" 
	d="
M17.734015,40.711998 
	C15.104465,43.425194 11.890840,45.645840 14.787869,50.229652 
	C15.396980,51.193417 14.993478,52.820168 14.994735,54.141476 
	C15.004965,64.904312 14.934449,75.667816 15.040318,86.429626 
	C15.072518,89.702850 15.461627,92.987251 15.901222,96.237610 
	C16.333460,99.433563 15.775194,101.540039 11.484045,100.994888 
	C11.052173,80.975319 11.038166,60.957829 11.035490,40.472187 
	C13.186326,40.144684 15.325830,40.285339 17.734015,40.711998 
z"/>
<path fill="#3A2756" opacity="1.000000" stroke="none" 
	d="
M39.027924,92.245041 
	C39.006516,81.477379 38.985107,70.709717 38.926094,59.475361 
	C39.037159,58.478958 39.185825,57.949253 39.571251,57.274925 
	C39.808006,57.130302 40.026402,57.254017 40.079887,57.637218 
	C40.096706,69.326073 40.060040,80.631729 39.777916,92.025314 
	C39.364277,92.157173 39.196102,92.201103 39.027924,92.245041 
z"/>
<path fill="#A87ADF" opacity="1.000000" stroke="none" 
	d="
M61.873077,27.698383 
	C60.655434,28.737770 59.306885,29.477568 57.958336,30.217363 
	C57.608406,29.858982 57.258472,29.500599 56.908543,29.142216 
	C57.422321,27.898481 57.936096,26.654749 58.733780,25.200876 
	C59.925850,25.793423 60.834011,26.596109 61.873077,27.698383 
z"/>
<path fill="#F7ECFB" opacity="1.000000" stroke="none" 
	d="
M83.841125,41.679031 
	C83.997574,41.981853 83.944939,42.394859 83.865051,42.586918 
	C82.760292,42.097496 81.735420,41.416016 80.691963,40.392189 
	C81.677147,40.491970 82.680916,40.934090 83.841125,41.679031 
z"/>
<path fill="#A87ADF" opacity="1.000000" stroke="none" 
	d="
M65.895538,31.778139 
	C65.676956,31.899607 65.413681,31.711468 65.108353,31.211414 
	C65.325111,31.094229 65.586624,31.283907 65.895538,31.778139 
z"/>
<path fill="#745F99" opacity="1.000000" stroke="none" 
	d="
M16.958855,117.430092 
	C18.311293,116.198761 19.830757,115.251762 21.671160,114.572433 
	C22.918249,117.627975 23.844400,120.415848 24.488621,123.140717 
	C23.848656,122.936760 23.490625,122.795807 23.132595,122.654861 
	C21.130356,121.008041 19.128117,119.361237 16.958855,117.430092 
z"/>
<path fill="#F8F4FA" opacity="1.000000" stroke="none" 
	d="
M39.263268,134.637970 
	C34.594505,135.976410 32.998451,131.836746 30.159313,129.312561 
	C29.996422,129.002274 29.981604,128.544434 30.015028,128.259659 
	C30.048452,127.974876 30.128145,127.856758 30.418339,127.961060 
	C31.429317,128.436920 32.150105,128.808472 32.866367,129.172119 
	C32.861847,129.164230 32.836044,129.189117 32.996162,129.477295 
	C35.191940,131.389633 37.227604,133.013794 39.263268,134.637970 
z"/>
<path fill="#F5EDF8" opacity="1.000000" stroke="none" 
	d="
M23.117928,123.032928 
	C23.490625,122.795807 23.848656,122.936760 24.502420,123.125946 
	C24.798153,123.174179 24.828053,123.150932 24.980728,123.440094 
	C26.798317,125.105087 28.463230,126.480927 30.128145,127.856758 
	C30.128145,127.856758 30.048452,127.974876 30.003094,128.030930 
	C27.672911,126.528328 25.388086,124.969666 23.117928,123.032928 
z"/>
<path fill="#A689C9" opacity="1.000000" stroke="none" 
	d="
M37.648720,17.053883 
	C38.762592,20.423723 36.362652,21.261480 33.381325,21.694059 
	C32.967533,21.240242 32.949387,21.037758 32.931236,20.835274 
	C34.406254,19.620167 35.881275,18.405062 37.648720,17.053883 
z"/>
<path fill="#A88AC9" opacity="1.000000" stroke="none" 
	d="
M32.631096,20.974903 
	C32.949387,21.037758 32.967533,21.240242 33.008606,21.747431 
	C31.573847,23.025526 30.116158,23.998917 28.285877,24.944054 
	C29.385843,23.648710 30.858400,22.381620 32.631096,20.974903 
z"/>
<path fill="#6C4AA1" opacity="1.000000" stroke="none" 
	d="
M58.190460,78.522820 
	C61.854687,82.050934 65.518913,85.579041 69.489449,89.257507 
	C73.524757,94.328651 77.253761,99.249443 80.842010,104.791824 
	C79.803650,105.612869 78.906036,105.812317 78.001007,105.647301 
	C77.036362,101.425644 75.198792,98.933479 71.181015,100.515526 
	C69.082413,97.433594 66.062035,94.761559 65.397560,91.595131 
	C64.477020,87.208496 62.858639,85.559761 58.521099,86.820862 
	C58.305035,84.290710 58.119873,82.122452 57.985317,79.593964 
	C58.087433,78.996765 58.138947,78.759796 58.190460,78.522820 
z"/>
<path fill="#6F5C97" opacity="1.000000" stroke="none" 
	d="
M78.008430,106.011772 
	C78.906036,105.812317 79.803650,105.612869 80.910782,105.124710 
	C81.526283,104.890121 81.932266,104.944229 82.637245,105.250153 
	C82.866219,105.802536 82.818642,106.106613 82.793533,106.414207 
	C77.611320,111.399437 72.429108,116.384666 67.119476,121.680099 
	C66.374062,122.151871 65.756073,122.313438 64.592148,122.747139 
	C63.485523,123.793266 62.924839,124.567261 62.364151,125.341263 
	C62.364151,125.341263 62.054722,125.189919 61.852440,125.183708 
	C60.762638,125.450027 59.875114,125.722557 58.992577,125.621475 
	C58.995869,124.500519 58.994175,123.753174 58.996223,123.002914 
	C58.999962,123.000000 59.005604,122.992653 59.361748,122.960175 
	C67.522011,119.135063 73.367233,113.224350 78.008430,106.011772 
z"/>
<path fill="#A085C4" opacity="1.000000" stroke="none" 
	d="
M83.073761,106.667770 
	C82.818642,106.106613 82.866219,105.802536 82.944626,105.270790 
	C88.736176,106.634361 91.963036,110.496292 92.926392,116.726234 
	C89.708824,113.722015 86.531410,110.321678 83.073761,106.667770 
z"/>
<path fill="#F7F0FB" opacity="1.000000" stroke="none" 
	d="
M40.023376,91.937386 
	C40.060040,80.631729 40.096706,69.326073 40.182014,57.564278 
	C45.454327,63.107323 50.677994,69.106514 55.541656,75.547859 
	C54.042534,77.163948 52.891434,78.326530 51.766457,79.513870 
	C47.847210,83.650414 43.937016,87.795532 40.023376,91.937386 
z"/>
<path fill="#78619F" opacity="1.000000" stroke="none" 
	d="
M39.777916,92.025314 
	C43.937016,87.795532 47.847210,83.650414 51.766457,79.513870 
	C52.891434,78.326530 54.042534,77.163948 55.503414,75.892830 
	C56.544846,76.517273 57.264519,77.238899 58.087326,78.241669 
	C58.138947,78.759796 58.087433,78.996765 57.701256,79.490959 
	C56.072552,80.233047 54.387047,80.358978 53.554497,81.266991 
	C50.493099,84.605850 47.913315,88.400948 44.734283,91.610291 
	C43.418957,92.938164 41.047852,93.220238 39.156906,93.977936 
	C39.136093,93.589882 39.115284,93.201828 39.061199,92.529411 
	C39.196102,92.201103 39.364277,92.157173 39.777916,92.025314 
z"/>
<path fill="#FCF9FB" opacity="1.000000" stroke="none" 
	d="
M143.829651,95.963516 
	C141.242996,95.631706 138.656357,95.299904 135.685059,94.962875 
	C135.224335,90.978912 132.146469,89.708649 129.445389,87.637329 
	C124.755219,84.040657 120.701019,79.614655 116.212776,75.246643 
	C119.952995,71.181419 123.860588,67.405960 127.913727,63.329952 
	C129.499985,61.773724 130.940704,60.518044 132.917450,59.001007 
	C133.666718,58.246975 133.879974,57.754303 134.093216,57.261631 
	C134.093216,57.261631 134.126724,57.043243 134.238220,57.050137 
	C134.903259,56.613461 135.456818,56.169888 136.089783,55.448429 
	C138.468842,54.783306 140.768478,54.396072 143.467804,54.021885 
	C143.911423,57.402729 143.955383,60.770523 143.999207,65.059158 
	C143.942596,75.974495 143.886124,85.969009 143.829651,95.963516 
z"/>
<path fill="#F3E5F8" opacity="1.000000" stroke="none" 
	d="
M133.856766,57.187313 
	C133.879974,57.754303 133.666718,58.246975 133.206635,58.862961 
	C132.996689,58.572659 133.033585,58.159042 133.097595,57.435173 
	C133.124725,57.124912 133.620316,57.112995 133.856766,57.187313 
z"/>
<path fill="#C591F4" opacity="1.000000" stroke="none" 
	d="
M182.047791,110.337524 
	C183.412109,109.669350 184.824814,109.338402 186.603180,109.001160 
	C186.827316,110.175362 186.685822,111.355873 186.271851,112.768036 
	C184.698334,112.224716 183.397263,111.449730 182.047791,110.337524 
z"/>
<path fill="#C591F4" opacity="1.000000" stroke="none" 
	d="
M182.303406,131.874161 
	C182.754349,131.008743 183.505188,130.011612 184.627716,129.006927 
	C184.200699,129.913742 183.402008,130.828094 182.303406,131.874161 
z"/>
<path fill="#725F95" opacity="1.000000" stroke="none" 
	d="
M58.987595,125.995094 
	C59.875114,125.722557 60.762638,125.450027 61.996605,125.277946 
	C61.218826,126.671989 60.094601,127.965584 58.823177,129.558105 
	C58.401440,129.921173 58.183323,130.068741 57.635056,130.622925 
	C55.759628,132.490723 54.270775,134.035324 52.781925,135.579926 
	C51.675949,136.239594 50.569969,136.899277 48.958843,137.749878 
	C47.920269,138.046127 47.386845,138.151443 46.521049,138.208649 
	C45.522385,138.167175 44.856083,138.173813 44.089085,137.891998 
	C42.407066,136.648727 40.825745,135.693878 39.244423,134.739044 
	C39.244423,134.739044 39.249275,134.688660 39.256271,134.663315 
	C37.227604,133.013794 35.191940,131.389633 33.400150,129.419128 
	C36.266174,130.387451 39.400318,131.186798 41.377171,133.150909 
	C43.698730,135.457535 46.328495,136.505219 48.601288,135.004562 
	C52.393181,132.500885 55.558487,129.048218 58.987595,125.995094 
z"/>
<path fill="#F8F4FA" opacity="1.000000" stroke="none" 
	d="
M53.015915,135.920776 
	C54.270775,134.035324 55.759628,132.490723 57.553024,130.806854 
	C58.285370,132.491714 58.713165,134.315826 59.140961,136.139954 
	C57.177277,136.180511 55.213593,136.221085 53.015915,135.920776 
z"/>
<path fill="#F8F4FA" opacity="1.000000" stroke="none" 
	d="
M46.853416,138.256744 
	C47.386845,138.151443 47.920269,138.046127 48.726654,137.975662 
	C48.999962,138.757355 49.000313,139.504196 49.000332,140.625519 
	C49.000000,141.000000 48.997940,141.002594 48.997940,141.002594 
	C47.241135,141.181458 45.484333,141.360321 43.577293,141.554474 
	C42.131882,139.575256 40.636032,137.526978 39.192299,135.108871 
	C40.825745,135.693878 42.407066,136.648727 44.139988,138.284210 
	C45.145531,138.728806 45.999474,138.492767 46.853416,138.256744 
z"/>
<path fill="#F8F4FA" opacity="1.000000" stroke="none" 
	d="
M63.464859,134.609100 
	C63.348938,135.058182 63.066143,135.333450 62.765385,135.587463 
	C62.757660,135.593979 62.552883,135.367172 62.440006,135.249176 
	C62.725216,134.976959 63.010426,134.704727 63.464859,134.609100 
z"/>
<path fill="#F8F4FA" opacity="1.000000" stroke="none" 
	d="
M53.045143,139.392334 
	C53.287724,139.789886 53.286030,140.185425 53.255703,140.578781 
	C53.254852,140.589844 52.948280,140.577332 52.784264,140.575806 
	C52.788464,140.180542 52.792664,139.785294 53.045143,139.392334 
z"/>
<path fill="#F8F4FA" opacity="1.000000" stroke="none" 
	d="
M49.001335,140.998962 
	C49.123585,141.140869 49.244495,141.283798 49.365406,141.426743 
	C49.279423,141.377548 49.193443,141.328354 49.052704,141.140869 
	C48.997940,141.002594 49.000000,141.000000 49.001335,140.998962 
z"/>
<path fill="#725F95" opacity="1.000000" stroke="none" 
	d="
M62.643158,125.247444 
	C62.924839,124.567261 63.485523,123.793266 64.398277,123.008102 
	C64.140953,123.715836 63.531559,124.434731 62.643158,125.247444 
z"/>
<path fill="#CEA5FC" opacity="1.000000" stroke="none" 
	d="
M144.243408,40.889351 
	C144.092255,40.978016 143.997498,40.498852 144.041473,40.258652 
	C144.188492,40.279198 144.291519,40.539944 144.243408,40.889351 
z"/>
<path fill="#B299CC" opacity="1.000000" stroke="none" 
	d="
M143.890930,96.358902 
	C143.886124,85.969009 143.942596,75.974495 144.041733,65.518814 
	C144.393219,66.775589 144.971191,68.494308 144.966324,70.211380 
	C144.938812,79.925003 144.771622,89.638229 144.368256,99.644585 
	C144.040421,98.876488 143.996323,97.815392 143.890930,96.358902 
z"/>
<path fill="#7352AB" opacity="1.000000" stroke="none" 
	d="
M58.992577,125.621475 
	C55.558487,129.048218 52.393181,132.500885 48.601288,135.004562 
	C46.328495,136.505219 43.698730,135.457535 41.377171,133.150909 
	C39.400318,131.186798 36.266174,130.387451 33.240036,129.130951 
	C32.836044,129.189117 32.861847,129.164230 32.910000,128.757294 
	C32.717571,122.548866 32.525913,122.426292 24.828053,123.150932 
	C24.828053,123.150932 24.798153,123.174179 24.784351,123.188950 
	C23.844400,120.415848 22.918249,117.627975 21.989334,114.436211 
	C27.489744,107.445572 32.992920,100.858833 38.826500,94.125015 
	C41.047852,93.220238 43.418957,92.938164 44.734283,91.610291 
	C47.913315,88.400948 50.493099,84.605850 53.554497,81.266991 
	C54.387047,80.358978 56.072552,80.233047 57.650650,79.851181 
	C58.119873,82.122452 58.305035,84.290710 58.521099,86.820862 
	C62.858639,85.559761 64.477020,87.208496 65.397560,91.595131 
	C66.062035,94.761559 69.082413,97.433594 71.181015,100.515526 
	C75.198792,98.933479 77.036362,101.425644 78.001007,105.647301 
	C73.367233,113.224350 67.522011,119.135063 59.304924,122.824242 
	C58.806271,122.672615 58.720581,122.624443 58.634892,122.576279 
	C58.754086,122.719460 58.873283,122.862648 58.992481,123.005829 
	C58.994175,123.753174 58.995869,124.500519 58.992577,125.621475 
z"/>
<path fill="#725F95" opacity="1.000000" stroke="none" 
	d="
M24.980728,123.440094 
	C32.525913,122.426292 32.717571,122.548866 32.914520,128.765182 
	C32.150105,128.808472 31.429317,128.436920 30.418339,127.961060 
	C28.463230,126.480927 26.798317,125.105087 24.980728,123.440094 
z"/>
<path fill="#FEFEFE" opacity="1.000000" stroke="none" 
	d="
M46.521049,138.208633 
	C45.999474,138.492767 45.145531,138.728806 44.240685,138.572647 
	C44.856083,138.173813 45.522385,138.167175 46.521049,138.208633 
z"/>
<path fill="#6F5C97" opacity="1.000000" stroke="none" 
	d="
M58.996223,123.002914 
	C58.873283,122.862648 58.754086,122.719460 58.634892,122.576279 
	C58.720581,122.624443 58.806271,122.672615 58.948784,122.856720 
	C59.005604,122.992653 58.999962,123.000000 58.996223,123.002914 
z"/>
</svg>